<svg width="380" height="100" viewBox="0 0 380 100" fill="none" xmlns="http://www.w3.org/2000/svg">
<path d="M26.1 73.6C23.18 73.6 20.54 73.3 18.18 72.7C15.82 72.06 13.68 71.14 11.76 69.94C9.88 68.74 8.18 67.3 6.66 65.62L11.82 58.9C14.22 61.5 16.62 63.32 19.02 64.36C21.46 65.4 24 65.92 26.64 65.92C27.96 65.92 29.24 65.76 30.48 65.44C31.72 65.08 32.72 64.56 33.48 63.88C34.24 63.16 34.62 62.28 34.62 61.24C34.62 60.52 34.42 59.9 34.02 59.38C33.66 58.86 33.14 58.42 32.46 58.06C31.78 57.7 30.98 57.38 30.06 57.1C29.18 56.78 28.24 56.52 27.24 56.32C26.28 56.12 25.26 55.96 24.18 55.84C21.74 55.44 19.56 54.88 17.64 54.16C15.72 53.44 14.1 52.56 12.78 51.52C11.5 50.44 10.52 49.2 9.84 47.8C9.16 46.36 8.82 44.72 8.82 42.88C8.82 41 9.26 39.28 10.14 37.72C11.06 36.12 12.3 34.76 13.86 33.64C15.46 32.52 17.3 31.66 19.38 31.06C21.5 30.46 23.74 30.16 26.1 30.16C28.82 30.16 31.22 30.44 33.3 31C35.42 31.56 37.28 32.36 38.88 33.4C40.48 34.44 41.8 35.68 42.84 37.12L37.56 43C36.6 41.88 35.5 40.94 34.26 40.18C33.02 39.42 31.7 38.86 30.3 38.5C28.94 38.1 27.52 37.9 26.04 37.9C24.52 37.9 23.16 38.08 21.96 38.44C20.8 38.76 19.86 39.26 19.14 39.94C18.46 40.58 18.12 41.38 18.12 42.34C18.12 43.14 18.36 43.84 18.84 44.44C19.36 45 20.04 45.48 20.88 45.88C21.76 46.28 22.78 46.62 23.94 46.9C25.1 47.18 26.3 47.42 27.54 47.62C29.82 47.98 31.96 48.46 33.96 49.06C35.96 49.66 37.7 50.42 39.18 51.34C40.66 52.26 41.8 53.44 42.6 54.88C43.44 56.28 43.86 57.98 43.86 59.98C43.86 62.82 43.1 65.26 41.58 67.3C40.1 69.34 38.02 70.9 35.34 71.98C32.66 73.06 29.58 73.6 26.1 73.6ZM55.493 73V65.08H64.193V38.92H55.493V31H81.893V38.92H73.193V65.08H81.893V73H55.493ZM96.5742 73V31H105.574V64.9H127.954V73H96.5742ZM134.709 73L152.829 31H161.289L179.349 73H169.989L159.729 48.94C159.409 48.22 159.069 47.4 158.709 46.48C158.389 45.56 158.049 44.62 157.689 43.66C157.369 42.7 157.049 41.76 156.729 40.84C156.449 39.92 156.189 39.1 155.949 38.38L157.809 38.32C157.569 39.24 157.289 40.16 156.969 41.08C156.689 41.96 156.369 42.86 156.009 43.78C155.689 44.7 155.349 45.6 154.989 46.48C154.629 47.36 154.269 48.24 153.909 49.12L143.649 73H134.709ZM142.989 64.42L146.049 57.16H167.589L169.929 64.42H142.989ZM188.918 73V31H209.798C212.598 31 215.078 31.58 217.238 32.74C219.438 33.86 221.138 35.44 222.338 37.48C223.578 39.48 224.198 41.76 224.198 44.32C224.198 46.88 223.558 49.2 222.278 51.28C220.998 53.36 219.238 55.02 216.998 56.26C214.798 57.46 212.358 58.06 209.678 58.06H197.618V73H188.918ZM215.738 73L203.618 54.04L212.978 52.54L226.298 73.06L215.738 73ZM197.618 50.74H209.018C210.218 50.74 211.278 50.48 212.198 49.96C213.118 49.44 213.838 48.72 214.358 47.8C214.878 46.88 215.138 45.84 215.138 44.68C215.138 43.52 214.838 42.5 214.238 41.62C213.678 40.74 212.878 40.06 211.838 39.58C210.838 39.06 209.658 38.8 208.298 38.8H197.618V50.74ZM257.095 73.36C253.295 73.36 249.935 72.58 247.015 71.02C244.135 69.46 241.875 67.32 240.235 64.6C238.595 61.84 237.775 58.74 237.775 55.3V30.94H246.835V54.88C246.835 56.84 247.275 58.6 248.155 60.16C249.075 61.72 250.295 62.96 251.815 63.88C253.375 64.8 255.135 65.26 257.095 65.26C259.095 65.26 260.875 64.8 262.435 63.88C264.035 62.96 265.295 61.72 266.215 60.16C267.135 58.6 267.595 56.84 267.595 54.88V30.94H276.355V55.3C276.355 58.74 275.535 61.84 273.895 64.6C272.255 67.32 269.975 69.46 267.055 71.02C264.175 72.58 260.855 73.36 257.095 73.36ZM305.944 73.6C303.024 73.6 300.384 73.3 298.024 72.7C295.664 72.06 293.524 71.14 291.604 69.94C289.724 68.74 288.024 67.3 286.504 65.62L291.664 58.9C294.064 61.5 296.464 63.32 298.864 64.36C301.304 65.4 303.844 65.92 306.484 65.92C307.804 65.92 309.084 65.76 310.324 65.44C311.564 65.08 312.564 64.56 313.324 63.88C314.084 63.16 314.464 62.28 314.464 61.24C314.464 60.52 314.264 59.9 313.864 59.38C313.504 58.86 312.984 58.42 312.304 58.06C311.624 57.7 310.824 57.38 309.904 57.1C309.024 56.78 308.084 56.52 307.084 56.32C306.124 56.12 305.104 55.96 304.024 55.84C301.584 55.44 299.404 54.88 297.484 54.16C295.564 53.44 293.944 52.56 292.624 51.52C291.344 50.44 290.364 49.2 289.684 47.8C289.004 46.36 288.664 44.72 288.664 42.88C288.664 41 289.104 39.28 289.984 37.72C290.904 36.12 292.144 34.76 293.704 33.64C295.304 32.52 297.144 31.66 299.224 31.06C301.344 30.46 303.584 30.16 305.944 30.16C308.664 30.16 311.064 30.44 313.144 31C315.264 31.56 317.124 32.36 318.724 33.4C320.324 34.44 321.644 35.68 322.684 37.12L317.404 43C316.444 41.88 315.344 40.94 314.104 40.18C312.864 39.42 311.544 38.86 310.144 38.5C308.784 38.1 307.364 37.9 305.884 37.9C304.364 37.9 303.004 38.08 301.804 38.44C300.644 38.76 299.704 39.26 298.984 39.94C298.304 40.58 297.964 41.38 297.964 42.34C297.964 43.14 298.204 43.84 298.684 44.44C299.204 45 299.884 45.48 300.724 45.88C301.604 46.28 302.624 46.62 303.784 46.9C304.944 47.18 306.144 47.42 307.384 47.62C309.664 47.98 311.804 48.46 313.804 49.06C315.804 49.66 317.544 50.42 319.024 51.34C320.504 52.26 321.644 53.44 322.444 54.88C323.284 56.28 323.704 57.98 323.704 59.98C323.704 62.82 322.944 65.26 321.424 67.3C319.944 69.34 317.864 70.9 315.184 71.98C312.504 73.06 309.424 73.6 305.944 73.6ZM330.237 73L348.357 31H356.817L374.877 73H365.517L355.257 48.94C354.937 48.22 354.597 47.4 354.237 46.48C353.917 45.56 353.577 44.62 353.217 43.66C352.897 42.7 352.577 41.76 352.257 40.84C351.977 39.92 351.717 39.1 351.477 38.38L353.337 38.32C353.097 39.24 352.817 40.16 352.497 41.08C352.217 41.96 351.897 42.86 351.537 43.78C351.217 44.7 350.877 45.6 350.517 46.48C350.157 47.36 349.797 48.24 349.437 49.12L339.177 73H330.237ZM338.517 64.42L341.577 57.16H363.117L365.457 64.42H338.517Z" fill="url(#paint0_linear_4_78)"/>
<path d="M26.1 73.6C23.18 73.6 20.54 73.3 18.18 72.7C15.82 72.06 13.68 71.14 11.76 69.94C9.88 68.74 8.18 67.3 6.66 65.62L11.82 58.9C14.22 61.5 16.62 63.32 19.02 64.36C21.46 65.4 24 65.92 26.64 65.92C27.96 65.92 29.24 65.76 30.48 65.44C31.72 65.08 32.72 64.56 33.48 63.88C34.24 63.16 34.62 62.28 34.62 61.24C34.62 60.52 34.42 59.9 34.02 59.38C33.66 58.86 33.14 58.42 32.46 58.06C31.78 57.7 30.98 57.38 30.06 57.1C29.18 56.78 28.24 56.52 27.24 56.32C26.28 56.12 25.26 55.96 24.18 55.84C21.74 55.44 19.56 54.88 17.64 54.16C15.72 53.44 14.1 52.56 12.78 51.52C11.5 50.44 10.52 49.2 9.84 47.8C9.16 46.36 8.82 44.72 8.82 42.88C8.82 41 9.26 39.28 10.14 37.72C11.06 36.12 12.3 34.76 13.86 33.64C15.46 32.52 17.3 31.66 19.38 31.06C21.5 30.46 23.74 30.16 26.1 30.16C28.82 30.16 31.22 30.44 33.3 31C35.42 31.56 37.28 32.36 38.88 33.4C40.48 34.44 41.8 35.68 42.84 37.12L37.56 43C36.6 41.88 35.5 40.94 34.26 40.18C33.02 39.42 31.7 38.86 30.3 38.5C28.94 38.1 27.52 37.9 26.04 37.9C24.52 37.9 23.16 38.08 21.96 38.44C20.8 38.76 19.86 39.26 19.14 39.94C18.46 40.58 18.12 41.38 18.12 42.34C18.12 43.14 18.36 43.84 18.84 44.44C19.36 45 20.04 45.48 20.88 45.88C21.76 46.28 22.78 46.62 23.94 46.9C25.1 47.18 26.3 47.42 27.54 47.62C29.82 47.98 31.96 48.46 33.96 49.06C35.96 49.66 37.7 50.42 39.18 51.34C40.66 52.26 41.8 53.44 42.6 54.88C43.44 56.28 43.86 57.98 43.86 59.98C43.86 62.82 43.1 65.26 41.58 67.3C40.1 69.34 38.02 70.9 35.34 71.98C32.66 73.06 29.58 73.6 26.1 73.6ZM55.493 73V65.08H64.193V38.92H55.493V31H81.893V38.92H73.193V65.08H81.893V73H55.493ZM96.5742 73V31H105.574V64.9H127.954V73H96.5742ZM134.709 73L152.829 31H161.289L179.349 73H169.989L159.729 48.94C159.409 48.22 159.069 47.4 158.709 46.48C158.389 45.56 158.049 44.62 157.689 43.66C157.369 42.7 157.049 41.76 156.729 40.84C156.449 39.92 156.189 39.1 155.949 38.38L157.809 38.32C157.569 39.24 157.289 40.16 156.969 41.08C156.689 41.96 156.369 42.86 156.009 43.78C155.689 44.7 155.349 45.6 154.989 46.48C154.629 47.36 154.269 48.24 153.909 49.12L143.649 73H134.709ZM142.989 64.42L146.049 57.16H167.589L169.929 64.42H142.989ZM188.918 73V31H209.798C212.598 31 215.078 31.58 217.238 32.74C219.438 33.86 221.138 35.44 222.338 37.48C223.578 39.48 224.198 41.76 224.198 44.32C224.198 46.88 223.558 49.2 222.278 51.28C220.998 53.36 219.238 55.02 216.998 56.26C214.798 57.46 212.358 58.06 209.678 58.06H197.618V73H188.918ZM215.738 73L203.618 54.04L212.978 52.54L226.298 73.06L215.738 73ZM197.618 50.74H209.018C210.218 50.74 211.278 50.48 212.198 49.96C213.118 49.44 213.838 48.72 214.358 47.8C214.878 46.88 215.138 45.84 215.138 44.68C215.138 43.52 214.838 42.5 214.238 41.62C213.678 40.74 212.878 40.06 211.838 39.58C210.838 39.06 209.658 38.8 208.298 38.8H197.618V50.74ZM257.095 73.36C253.295 73.36 249.935 72.58 247.015 71.02C244.135 69.46 241.875 67.32 240.235 64.6C238.595 61.84 237.775 58.74 237.775 55.3V30.94H246.835V54.88C246.835 56.84 247.275 58.6 248.155 60.16C249.075 61.72 250.295 62.96 251.815 63.88C253.375 64.8 255.135 65.26 257.095 65.26C259.095 65.26 260.875 64.8 262.435 63.88C264.035 62.96 265.295 61.72 266.215 60.16C267.135 58.6 267.595 56.84 267.595 54.88V30.94H276.355V55.3C276.355 58.74 275.535 61.84 273.895 64.6C272.255 67.32 269.975 69.46 267.055 71.02C264.175 72.58 260.855 73.36 257.095 73.36ZM305.944 73.6C303.024 73.6 300.384 73.3 298.024 72.7C295.664 72.06 293.524 71.14 291.604 69.94C289.724 68.74 288.024 67.3 286.504 65.62L291.664 58.9C294.064 61.5 296.464 63.32 298.864 64.36C301.304 65.4 303.844 65.92 306.484 65.92C307.804 65.92 309.084 65.76 310.324 65.44C311.564 65.08 312.564 64.56 313.324 63.88C314.084 63.16 314.464 62.28 314.464 61.24C314.464 60.52 314.264 59.9 313.864 59.38C313.504 58.86 312.984 58.42 312.304 58.06C311.624 57.7 310.824 57.38 309.904 57.1C309.024 56.78 308.084 56.52 307.084 56.32C306.124 56.12 305.104 55.96 304.024 55.84C301.584 55.44 299.404 54.88 297.484 54.16C295.564 53.44 293.944 52.56 292.624 51.52C291.344 50.44 290.364 49.2 289.684 47.8C289.004 46.36 288.664 44.72 288.664 42.88C288.664 41 289.104 39.28 289.984 37.72C290.904 36.12 292.144 34.76 293.704 33.64C295.304 32.52 297.144 31.66 299.224 31.06C301.344 30.46 303.584 30.16 305.944 30.16C308.664 30.16 311.064 30.44 313.144 31C315.264 31.56 317.124 32.36 318.724 33.4C320.324 34.44 321.644 35.68 322.684 37.12L317.404 43C316.444 41.88 315.344 40.94 314.104 40.18C312.864 39.42 311.544 38.86 310.144 38.5C308.784 38.1 307.364 37.9 305.884 37.9C304.364 37.9 303.004 38.08 301.804 38.44C300.644 38.76 299.704 39.26 298.984 39.94C298.304 40.58 297.964 41.38 297.964 42.34C297.964 43.14 298.204 43.84 298.684 44.44C299.204 45 299.884 45.48 300.724 45.88C301.604 46.28 302.624 46.62 303.784 46.9C304.944 47.18 306.144 47.42 307.384 47.62C309.664 47.98 311.804 48.46 313.804 49.06C315.804 49.66 317.544 50.42 319.024 51.34C320.504 52.26 321.644 53.44 322.444 54.88C323.284 56.28 323.704 57.98 323.704 59.98C323.704 62.82 322.944 65.26 321.424 67.3C319.944 69.34 317.864 70.9 315.184 71.98C312.504 73.06 309.424 73.6 305.944 73.6ZM330.237 73L348.357 31H356.817L374.877 73H365.517L355.257 48.94C354.937 48.22 354.597 47.4 354.237 46.48C353.917 45.56 353.577 44.62 353.217 43.66C352.897 42.7 352.577 41.76 352.257 40.84C351.977 39.92 351.717 39.1 351.477 38.38L353.337 38.32C353.097 39.24 352.817 40.16 352.497 41.08C352.217 41.96 351.897 42.86 351.537 43.78C351.217 44.7 350.877 45.6 350.517 46.48C350.157 47.36 349.797 48.24 349.437 49.12L339.177 73H330.237ZM338.517 64.42L341.577 57.16H363.117L365.457 64.42H338.517Z" fill="url(#paint1_linear_4_78)"/>
<defs>
<linearGradient id="paint0_linear_4_78" x1="3" y1="50.5" x2="240.5" y2="208.5" gradientUnits="userSpaceOnUse">
<stop stop-color="#1FBBBC"/>
<stop offset="1" stop-color="#007C7D"/>
</linearGradient>
<linearGradient id="paint1_linear_4_78" x1="3" y1="50.5" x2="284" y2="253.5" gradientUnits="userSpaceOnUse">
<stop stop-color="#185C9E" stop-opacity="0"/>
<stop offset="1" stop-color="#185C9E"/>
</linearGradient>
</defs>
</svg>
