<svg width="481" height="100" viewBox="0 0 481 100" fill="none" xmlns="http://www.w3.org/2000/svg">
<g clip-path="url(#clip0_4_63)">
<path d="M126.1 73.6C123.18 73.6 120.54 73.3 118.18 72.7C115.82 72.06 113.68 71.14 111.76 69.94C109.88 68.74 108.18 67.3 106.66 65.62L111.82 58.9C114.22 61.5 116.62 63.32 119.02 64.36C121.46 65.4 124 65.92 126.64 65.92C127.96 65.92 129.24 65.76 130.48 65.44C131.72 65.08 132.72 64.56 133.48 63.88C134.24 63.16 134.62 62.28 134.62 61.24C134.62 60.52 134.42 59.9 134.02 59.38C133.66 58.86 133.14 58.42 132.46 58.06C131.78 57.7 130.98 57.38 130.06 57.1C129.18 56.78 128.24 56.52 127.24 56.32C126.28 56.12 125.26 55.96 124.18 55.84C121.74 55.44 119.56 54.88 117.64 54.16C115.72 53.44 114.1 52.56 112.78 51.52C111.5 50.44 110.52 49.2 109.84 47.8C109.16 46.36 108.82 44.72 108.82 42.88C108.82 41 109.26 39.28 110.14 37.72C111.06 36.12 112.3 34.76 113.86 33.64C115.46 32.52 117.3 31.66 119.38 31.06C121.5 30.46 123.74 30.16 126.1 30.16C128.82 30.16 131.22 30.44 133.3 31C135.42 31.56 137.28 32.36 138.88 33.4C140.48 34.44 141.8 35.68 142.84 37.12L137.56 43C136.6 41.88 135.5 40.94 134.26 40.18C133.02 39.42 131.7 38.86 130.3 38.5C128.94 38.1 127.52 37.9 126.04 37.9C124.52 37.9 123.16 38.08 121.96 38.44C120.8 38.76 119.86 39.26 119.14 39.94C118.46 40.58 118.12 41.38 118.12 42.34C118.12 43.14 118.36 43.84 118.84 44.44C119.36 45 120.04 45.48 120.88 45.88C121.76 46.28 122.78 46.62 123.94 46.9C125.1 47.18 126.3 47.42 127.54 47.62C129.82 47.98 131.96 48.46 133.96 49.06C135.96 49.66 137.7 50.42 139.18 51.34C140.66 52.26 141.8 53.44 142.6 54.88C143.44 56.28 143.86 57.98 143.86 59.98C143.86 62.82 143.1 65.26 141.58 67.3C140.1 69.34 138.02 70.9 135.34 71.98C132.66 73.06 129.58 73.6 126.1 73.6ZM155.493 73V65.08H164.193V38.92H155.493V31H181.893V38.92H173.193V65.08H181.893V73H155.493ZM196.574 73V31H205.574V64.9H227.954V73H196.574ZM234.709 73L252.829 31H261.289L279.349 73H269.989L259.729 48.94C259.409 48.22 259.069 47.4 258.709 46.48C258.389 45.56 258.049 44.62 257.689 43.66C257.369 42.7 257.049 41.76 256.729 40.84C256.449 39.92 256.189 39.1 255.949 38.38L257.809 38.32C257.569 39.24 257.289 40.16 256.969 41.08C256.689 41.96 256.369 42.86 256.009 43.78C255.689 44.7 255.349 45.6 254.989 46.48C254.629 47.36 254.269 48.24 253.909 49.12L243.649 73H234.709ZM242.989 64.42L246.049 57.16H267.589L269.929 64.42H242.989ZM288.918 73V31H309.798C312.598 31 315.078 31.58 317.238 32.74C319.438 33.86 321.138 35.44 322.338 37.48C323.578 39.48 324.198 41.76 324.198 44.32C324.198 46.88 323.558 49.2 322.278 51.28C320.998 53.36 319.238 55.02 316.998 56.26C314.798 57.46 312.358 58.06 309.678 58.06H297.618V73H288.918ZM315.738 73L303.618 54.04L312.978 52.54L326.298 73.06L315.738 73ZM297.618 50.74H309.018C310.218 50.74 311.278 50.48 312.198 49.96C313.118 49.44 313.838 48.72 314.358 47.8C314.878 46.88 315.138 45.84 315.138 44.68C315.138 43.52 314.838 42.5 314.238 41.62C313.678 40.74 312.878 40.06 311.838 39.58C310.838 39.06 309.658 38.8 308.298 38.8H297.618V50.74ZM357.095 73.36C353.295 73.36 349.935 72.58 347.015 71.02C344.135 69.46 341.875 67.32 340.235 64.6C338.595 61.84 337.775 58.74 337.775 55.3V30.94H346.835V54.88C346.835 56.84 347.275 58.6 348.155 60.16C349.075 61.72 350.295 62.96 351.815 63.88C353.375 64.8 355.135 65.26 357.095 65.26C359.095 65.26 360.875 64.8 362.435 63.88C364.035 62.96 365.295 61.72 366.215 60.16C367.135 58.6 367.595 56.84 367.595 54.88V30.94H376.355V55.3C376.355 58.74 375.535 61.84 373.895 64.6C372.255 67.32 369.975 69.46 367.055 71.02C364.175 72.58 360.855 73.36 357.095 73.36ZM405.944 73.6C403.024 73.6 400.384 73.3 398.024 72.7C395.664 72.06 393.524 71.14 391.604 69.94C389.724 68.74 388.024 67.3 386.504 65.62L391.664 58.9C394.064 61.5 396.464 63.32 398.864 64.36C401.304 65.4 403.844 65.92 406.484 65.92C407.804 65.92 409.084 65.76 410.324 65.44C411.564 65.08 412.564 64.56 413.324 63.88C414.084 63.16 414.464 62.28 414.464 61.24C414.464 60.52 414.264 59.9 413.864 59.38C413.504 58.86 412.984 58.42 412.304 58.06C411.624 57.7 410.824 57.38 409.904 57.1C409.024 56.78 408.084 56.52 407.084 56.32C406.124 56.12 405.104 55.96 404.024 55.84C401.584 55.44 399.404 54.88 397.484 54.16C395.564 53.44 393.944 52.56 392.624 51.52C391.344 50.44 390.364 49.2 389.684 47.8C389.004 46.36 388.664 44.72 388.664 42.88C388.664 41 389.104 39.28 389.984 37.72C390.904 36.12 392.144 34.76 393.704 33.64C395.304 32.52 397.144 31.66 399.224 31.06C401.344 30.46 403.584 30.16 405.944 30.16C408.664 30.16 411.064 30.44 413.144 31C415.264 31.56 417.124 32.36 418.724 33.4C420.324 34.44 421.644 35.68 422.684 37.12L417.404 43C416.444 41.88 415.344 40.94 414.104 40.18C412.864 39.42 411.544 38.86 410.144 38.5C408.784 38.1 407.364 37.9 405.884 37.9C404.364 37.9 403.004 38.08 401.804 38.44C400.644 38.76 399.704 39.26 398.984 39.94C398.304 40.58 397.964 41.38 397.964 42.34C397.964 43.14 398.204 43.84 398.684 44.44C399.204 45 399.884 45.48 400.724 45.88C401.604 46.28 402.624 46.62 403.784 46.9C404.944 47.18 406.144 47.42 407.384 47.62C409.664 47.98 411.804 48.46 413.804 49.06C415.804 49.66 417.544 50.42 419.024 51.34C420.504 52.26 421.644 53.44 422.444 54.88C423.284 56.28 423.704 57.98 423.704 59.98C423.704 62.82 422.944 65.26 421.424 67.3C419.944 69.34 417.864 70.9 415.184 71.98C412.504 73.06 409.424 73.6 405.944 73.6ZM430.237 73L448.357 31H456.817L474.877 73H465.517L455.257 48.94C454.937 48.22 454.597 47.4 454.237 46.48C453.917 45.56 453.577 44.62 453.217 43.66C452.897 42.7 452.577 41.76 452.257 40.84C451.977 39.92 451.717 39.1 451.477 38.38L453.337 38.32C453.097 39.24 452.817 40.16 452.497 41.08C452.217 41.96 451.897 42.86 451.537 43.78C451.217 44.7 450.877 45.6 450.517 46.48C450.157 47.36 449.797 48.24 449.437 49.12L439.177 73H430.237ZM438.517 64.42L441.577 57.16H463.117L465.457 64.42H438.517Z" fill="url(#paint0_linear_4_63)"/>
<path d="M126.1 73.6C123.18 73.6 120.54 73.3 118.18 72.7C115.82 72.06 113.68 71.14 111.76 69.94C109.88 68.74 108.18 67.3 106.66 65.62L111.82 58.9C114.22 61.5 116.62 63.32 119.02 64.36C121.46 65.4 124 65.92 126.64 65.92C127.96 65.92 129.24 65.76 130.48 65.44C131.72 65.08 132.72 64.56 133.48 63.88C134.24 63.16 134.62 62.28 134.62 61.24C134.62 60.52 134.42 59.9 134.02 59.38C133.66 58.86 133.14 58.42 132.46 58.06C131.78 57.7 130.98 57.38 130.06 57.1C129.18 56.78 128.24 56.52 127.24 56.32C126.28 56.12 125.26 55.96 124.18 55.84C121.74 55.44 119.56 54.88 117.64 54.16C115.72 53.44 114.1 52.56 112.78 51.52C111.5 50.44 110.52 49.2 109.84 47.8C109.16 46.36 108.82 44.72 108.82 42.88C108.82 41 109.26 39.28 110.14 37.72C111.06 36.12 112.3 34.76 113.86 33.64C115.46 32.52 117.3 31.66 119.38 31.06C121.5 30.46 123.74 30.16 126.1 30.16C128.82 30.16 131.22 30.44 133.3 31C135.42 31.56 137.28 32.36 138.88 33.4C140.48 34.44 141.8 35.68 142.84 37.12L137.56 43C136.6 41.88 135.5 40.94 134.26 40.18C133.02 39.42 131.7 38.86 130.3 38.5C128.94 38.1 127.52 37.9 126.04 37.9C124.52 37.9 123.16 38.08 121.96 38.44C120.8 38.76 119.86 39.26 119.14 39.94C118.46 40.58 118.12 41.38 118.12 42.34C118.12 43.14 118.36 43.84 118.84 44.44C119.36 45 120.04 45.48 120.88 45.88C121.76 46.28 122.78 46.62 123.94 46.9C125.1 47.18 126.3 47.42 127.54 47.62C129.82 47.98 131.96 48.46 133.96 49.06C135.96 49.66 137.7 50.42 139.18 51.34C140.66 52.26 141.8 53.44 142.6 54.88C143.44 56.28 143.86 57.98 143.86 59.98C143.86 62.82 143.1 65.26 141.58 67.3C140.1 69.34 138.02 70.9 135.34 71.98C132.66 73.06 129.58 73.6 126.1 73.6ZM155.493 73V65.08H164.193V38.92H155.493V31H181.893V38.92H173.193V65.08H181.893V73H155.493ZM196.574 73V31H205.574V64.9H227.954V73H196.574ZM234.709 73L252.829 31H261.289L279.349 73H269.989L259.729 48.94C259.409 48.22 259.069 47.4 258.709 46.48C258.389 45.56 258.049 44.62 257.689 43.66C257.369 42.7 257.049 41.76 256.729 40.84C256.449 39.92 256.189 39.1 255.949 38.38L257.809 38.32C257.569 39.24 257.289 40.16 256.969 41.08C256.689 41.96 256.369 42.86 256.009 43.78C255.689 44.7 255.349 45.6 254.989 46.48C254.629 47.36 254.269 48.24 253.909 49.12L243.649 73H234.709ZM242.989 64.42L246.049 57.16H267.589L269.929 64.42H242.989ZM288.918 73V31H309.798C312.598 31 315.078 31.58 317.238 32.74C319.438 33.86 321.138 35.44 322.338 37.48C323.578 39.48 324.198 41.76 324.198 44.32C324.198 46.88 323.558 49.2 322.278 51.28C320.998 53.36 319.238 55.02 316.998 56.26C314.798 57.46 312.358 58.06 309.678 58.06H297.618V73H288.918ZM315.738 73L303.618 54.04L312.978 52.54L326.298 73.06L315.738 73ZM297.618 50.74H309.018C310.218 50.74 311.278 50.48 312.198 49.96C313.118 49.44 313.838 48.72 314.358 47.8C314.878 46.88 315.138 45.84 315.138 44.68C315.138 43.52 314.838 42.5 314.238 41.62C313.678 40.74 312.878 40.06 311.838 39.58C310.838 39.06 309.658 38.8 308.298 38.8H297.618V50.74ZM357.095 73.36C353.295 73.36 349.935 72.58 347.015 71.02C344.135 69.46 341.875 67.32 340.235 64.6C338.595 61.84 337.775 58.74 337.775 55.3V30.94H346.835V54.88C346.835 56.84 347.275 58.6 348.155 60.16C349.075 61.72 350.295 62.96 351.815 63.88C353.375 64.8 355.135 65.26 357.095 65.26C359.095 65.26 360.875 64.8 362.435 63.88C364.035 62.96 365.295 61.72 366.215 60.16C367.135 58.6 367.595 56.84 367.595 54.88V30.94H376.355V55.3C376.355 58.74 375.535 61.84 373.895 64.6C372.255 67.32 369.975 69.46 367.055 71.02C364.175 72.58 360.855 73.36 357.095 73.36ZM405.944 73.6C403.024 73.6 400.384 73.3 398.024 72.7C395.664 72.06 393.524 71.14 391.604 69.94C389.724 68.74 388.024 67.3 386.504 65.62L391.664 58.9C394.064 61.5 396.464 63.32 398.864 64.36C401.304 65.4 403.844 65.92 406.484 65.92C407.804 65.92 409.084 65.76 410.324 65.44C411.564 65.08 412.564 64.56 413.324 63.88C414.084 63.16 414.464 62.28 414.464 61.24C414.464 60.52 414.264 59.9 413.864 59.38C413.504 58.86 412.984 58.42 412.304 58.06C411.624 57.7 410.824 57.38 409.904 57.1C409.024 56.78 408.084 56.52 407.084 56.32C406.124 56.12 405.104 55.96 404.024 55.84C401.584 55.44 399.404 54.88 397.484 54.16C395.564 53.44 393.944 52.56 392.624 51.52C391.344 50.44 390.364 49.2 389.684 47.8C389.004 46.36 388.664 44.72 388.664 42.88C388.664 41 389.104 39.28 389.984 37.72C390.904 36.12 392.144 34.76 393.704 33.64C395.304 32.52 397.144 31.66 399.224 31.06C401.344 30.46 403.584 30.16 405.944 30.16C408.664 30.16 411.064 30.44 413.144 31C415.264 31.56 417.124 32.36 418.724 33.4C420.324 34.44 421.644 35.68 422.684 37.12L417.404 43C416.444 41.88 415.344 40.94 414.104 40.18C412.864 39.42 411.544 38.86 410.144 38.5C408.784 38.1 407.364 37.9 405.884 37.9C404.364 37.9 403.004 38.08 401.804 38.44C400.644 38.76 399.704 39.26 398.984 39.94C398.304 40.58 397.964 41.38 397.964 42.34C397.964 43.14 398.204 43.84 398.684 44.44C399.204 45 399.884 45.48 400.724 45.88C401.604 46.28 402.624 46.62 403.784 46.9C404.944 47.18 406.144 47.42 407.384 47.62C409.664 47.98 411.804 48.46 413.804 49.06C415.804 49.66 417.544 50.42 419.024 51.34C420.504 52.26 421.644 53.44 422.444 54.88C423.284 56.28 423.704 57.98 423.704 59.98C423.704 62.82 422.944 65.26 421.424 67.3C419.944 69.34 417.864 70.9 415.184 71.98C412.504 73.06 409.424 73.6 405.944 73.6ZM430.237 73L448.357 31H456.817L474.877 73H465.517L455.257 48.94C454.937 48.22 454.597 47.4 454.237 46.48C453.917 45.56 453.577 44.62 453.217 43.66C452.897 42.7 452.577 41.76 452.257 40.84C451.977 39.92 451.717 39.1 451.477 38.38L453.337 38.32C453.097 39.24 452.817 40.16 452.497 41.08C452.217 41.96 451.897 42.86 451.537 43.78C451.217 44.7 450.877 45.6 450.517 46.48C450.157 47.36 449.797 48.24 449.437 49.12L439.177 73H430.237ZM438.517 64.42L441.577 57.16H463.117L465.457 64.42H438.517Z" fill="url(#paint1_linear_4_63)"/>
<path d="M58.7318 41.6503C70.7575 53.0005 80.1277 64.5025 85.6037 73.811C88.3602 78.4966 89.9734 82.3643 90.5707 85.2155C91.0907 87.698 90.6926 88.5517 90.6061 88.7042C90.4504 88.7915 89.5772 89.1968 86.9977 88.7538C84.035 88.245 79.9969 86.7787 75.0854 84.2271C65.3283 79.1581 53.2094 70.378 41.1838 59.0278C29.1582 47.6777 19.788 36.1757 14.3119 26.8672C11.5554 22.1815 9.94229 18.3139 9.345 15.4626C8.82497 12.9802 9.22306 12.1265 9.30956 11.9739C9.46522 11.8867 10.3384 11.4814 12.918 11.9244C15.8807 12.4332 19.9188 13.8994 24.8303 16.451C34.5874 21.5201 46.7062 30.3002 58.7318 41.6503Z" stroke="#1B7E8B" stroke-width="10.475"/>
<g filter="url(#filter0_i_4_63)">
<path fill-rule="evenodd" clip-rule="evenodd" d="M60.8654 88.109C60.8658 93.8253 56.2323 98.4597 50.5159 98.4602L48.8241 98.4603C43.1078 98.4608 38.4734 93.8272 38.4729 88.1109L38.4708 63.7194L63.4401 38.7458L87.8317 38.7437C93.548 38.7432 98.1824 43.3768 98.1828 49.0931L98.183 50.785C98.1835 56.5013 93.5499 61.1357 87.8336 61.1362L60.8631 61.1385L60.8654 88.109ZM60.861 36.7507L60.8589 11.7755C60.8584 6.05922 56.224 1.42561 50.5077 1.4261L48.8158 1.42625C43.0995 1.42673 38.4659 6.06112 38.4664 11.7774L38.4687 38.7479L11.4982 38.7502C5.78187 38.7507 1.14826 43.3851 1.14875 49.1014L1.1489 50.7933C1.14938 56.5096 5.78377 61.1432 11.5001 61.1427L36.4753 61.1406L60.861 36.7507Z" fill="url(#paint2_linear_4_63)"/>
</g>
<g filter="url(#filter1_i_4_63)">
<path fill-rule="evenodd" clip-rule="evenodd" d="M60.8654 88.109C60.8658 93.8253 56.2323 98.4597 50.5159 98.4602L48.8241 98.4603C43.1078 98.4608 38.4734 93.8272 38.4729 88.1109L38.4708 63.7194L63.4401 38.7458L87.8317 38.7437C93.548 38.7432 98.1824 43.3768 98.1828 49.0931L98.183 50.785C98.1835 56.5013 93.5499 61.1357 87.8336 61.1362L60.8631 61.1385L60.8654 88.109ZM60.861 36.7507L60.8589 11.7755C60.8584 6.05922 56.224 1.42561 50.5077 1.4261L48.8158 1.42625C43.0995 1.42673 38.4659 6.06112 38.4664 11.7774L38.4687 38.7479L11.4982 38.7502C5.78187 38.7507 1.14826 43.3851 1.14875 49.1014L1.1489 50.7933C1.14938 56.5096 5.78377 61.1432 11.5001 61.1427L36.4753 61.1406L60.861 36.7507Z" fill="url(#paint3_linear_4_63)"/>
</g>
<g filter="url(#filter2_d_4_63)">
<path d="M16.7049 30.493C22.1835 39.0172 29.9211 48.5528 40.1375 58.1953C47.8794 65.5024 56.8207 72.7844 65.7308 78.5808" stroke="url(#paint4_linear_4_63)" stroke-width="10.475"/>
</g>
<path d="M88.5844 79.8C89.5297 82.8158 95.4669 92.511 84.6563 88.311C70.4674 83.3683 53.5125 70.8191 40.1375 58.1953C25.8585 44.7183 16.4215 31.4503 11.2268 20.8606C3.64244 5.3993 16.8395 12.882 20.4969 14.3313" stroke="url(#paint5_linear_4_63)" stroke-width="10.475" stroke-linecap="round"/>
</g>
<defs>
<filter id="filter0_i_4_63" x="-1.00623" y="-0.728884" width="99.1892" height="99.1892" filterUnits="userSpaceOnUse" color-interpolation-filters="sRGB">
<feFlood flood-opacity="0" result="BackgroundImageFix"/>
<feBlend mode="normal" in="SourceGraphic" in2="BackgroundImageFix" result="shape"/>
<feColorMatrix in="SourceAlpha" type="matrix" values="0 0 0 0 0 0 0 0 0 0 0 0 0 0 0 0 0 0 127 0" result="hardAlpha"/>
<feOffset dx="-2.15499" dy="-2.15499"/>
<feGaussianBlur stdDeviation="1.61624"/>
<feComposite in2="hardAlpha" operator="arithmetic" k2="-1" k3="1"/>
<feColorMatrix type="matrix" values="0 0 0 0 0.431667 0 0 0 0 0.775383 0 0 0 0 0.925 0 0 0 0.6 0"/>
<feBlend mode="normal" in2="shape" result="effect1_innerShadow_4_63"/>
</filter>
<filter id="filter1_i_4_63" x="1.14876" y="1.4261" width="97.0342" height="99.1892" filterUnits="userSpaceOnUse" color-interpolation-filters="sRGB">
<feFlood flood-opacity="0" result="BackgroundImageFix"/>
<feBlend mode="normal" in="SourceGraphic" in2="BackgroundImageFix" result="shape"/>
<feColorMatrix in="SourceAlpha" type="matrix" values="0 0 0 0 0 0 0 0 0 0 0 0 0 0 0 0 0 0 127 0" result="hardAlpha"/>
<feOffset dy="2.15499"/>
<feGaussianBlur stdDeviation="1.61624"/>
<feComposite in2="hardAlpha" operator="arithmetic" k2="-1" k3="1"/>
<feColorMatrix type="matrix" values="0 0 0 0 0.392157 0 0 0 0 0.690196 0 0 0 0 0.976471 0 0 0 0.7 0"/>
<feBlend mode="normal" in2="shape" result="effect1_innerShadow_4_63"/>
</filter>
<filter id="filter2_d_4_63" x="8.94867" y="27.7732" width="62.9899" height="62.6222" filterUnits="userSpaceOnUse" color-interpolation-filters="sRGB">
<feFlood flood-opacity="0" result="BackgroundImageFix"/>
<feColorMatrix in="SourceAlpha" type="matrix" values="0 0 0 0 0 0 0 0 0 0 0 0 0 0 0 0 0 0 127 0" result="hardAlpha"/>
<feOffset dy="4.30997"/>
<feGaussianBlur stdDeviation="1.61624"/>
<feComposite in2="hardAlpha" operator="out"/>
<feColorMatrix type="matrix" values="0 0 0 0 0.109462 0 0 0 0 0.154646 0 0 0 0 0.270833 0 0 0 0.2 0"/>
<feBlend mode="normal" in2="BackgroundImageFix" result="effect1_dropShadow_4_63"/>
<feBlend mode="normal" in="SourceGraphic" in2="effect1_dropShadow_4_63" result="shape"/>
</filter>
<linearGradient id="paint0_linear_4_63" x1="103" y1="50.5" x2="340.5" y2="208.5" gradientUnits="userSpaceOnUse">
<stop stop-color="#1FBBBC"/>
<stop offset="1" stop-color="#007C7D"/>
</linearGradient>
<linearGradient id="paint1_linear_4_63" x1="103" y1="50.5" x2="384" y2="253.5" gradientUnits="userSpaceOnUse">
<stop stop-color="#185C9E" stop-opacity="0"/>
<stop offset="1" stop-color="#185C9E"/>
</linearGradient>
<linearGradient id="paint2_linear_4_63" x1="98.187" y1="98.4561" x2="49.6617" y2="1.42617" gradientUnits="userSpaceOnUse">
<stop offset="0.355" stop-color="#0D4682"/>
<stop offset="1" stop-color="#54ABD0"/>
</linearGradient>
<linearGradient id="paint3_linear_4_63" x1="98.187" y1="98.4561" x2="49.6617" y2="1.42617" gradientUnits="userSpaceOnUse">
<stop offset="0.355" stop-color="#185C9E"/>
<stop offset="1" stop-color="#3A80C4"/>
</linearGradient>
<linearGradient id="paint4_linear_4_63" x1="41.3266" y1="58.9105" x2="53.6277" y2="45.8774" gradientUnits="userSpaceOnUse">
<stop stop-color="#1FBBBC"/>
<stop offset="0.81" stop-color="#1B7E8B"/>
</linearGradient>
<linearGradient id="paint5_linear_4_63" x1="41.3266" y1="58.9105" x2="53.6277" y2="45.8773" gradientUnits="userSpaceOnUse">
<stop stop-color="#1FBBBC"/>
<stop offset="0.75" stop-color="#1B7E8B"/>
</linearGradient>
<clipPath id="clip0_4_63">
<rect width="481" height="100" fill="white"/>
</clipPath>
</defs>
</svg>
