<svg width="327" height="100" viewBox="0 0 327 100" fill="none" xmlns="http://www.w3.org/2000/svg">
<path d="M13.37 76V27H22.96L40.81 56.05L34.51 55.98L52.57 27H61.74V76H51.45V59.2C51.45 55 51.5433 51.22 51.73 47.86C51.9633 44.5 52.3367 41.1633 52.85 37.85L54.11 41.14L39.76 63.4H35.14L21.07 41.28L22.26 37.85C22.7733 40.9767 23.1233 44.1967 23.31 47.51C23.5433 50.7767 23.66 54.6733 23.66 59.2V76H13.37ZM90.6533 76.7C86.6399 76.7 83.1399 75.8833 80.1533 74.25C77.1666 72.6167 74.8333 70.3767 73.1533 67.53C71.4733 64.6833 70.6333 61.4167 70.6333 57.73C70.6333 54.8833 71.0999 52.27 72.0333 49.89C72.9666 47.51 74.2733 45.4567 75.9533 43.73C77.6333 41.9567 79.6166 40.6033 81.9033 39.67C84.2366 38.69 86.7566 38.2 89.4633 38.2C91.9833 38.2 94.3166 38.6667 96.4633 39.6C98.61 40.4867 100.453 41.77 101.993 43.45C103.58 45.0833 104.793 47.02 105.633 49.26C106.473 51.5 106.847 53.95 106.753 56.61L106.683 59.69H76.9333L75.3233 53.6H98.4933L97.3733 54.86V53.32C97.2799 52.06 96.8599 50.9167 96.1133 49.89C95.4133 48.8633 94.5033 48.07 93.3833 47.51C92.2633 46.95 91.0033 46.67 89.6033 46.67C87.5499 46.67 85.7999 47.0667 84.3533 47.86C82.9533 48.6533 81.8799 49.82 81.1333 51.36C80.3866 52.9 80.0133 54.7667 80.0133 56.96C80.0133 59.2 80.4799 61.1367 81.4133 62.77C82.3933 64.4033 83.7466 65.6867 85.4733 66.62C87.2466 67.5067 89.3233 67.95 91.7033 67.95C93.3366 67.95 94.8299 67.6933 96.1833 67.18C97.5366 66.6667 98.9833 65.78 100.523 64.52L105.283 71.17C103.93 72.3833 102.437 73.41 100.803 74.25C99.1699 75.0433 97.4899 75.65 95.7633 76.07C94.0366 76.49 92.3333 76.7 90.6533 76.7ZM128.589 76.7C125.369 76.7 122.476 75.8833 119.909 74.25C117.342 72.57 115.312 70.3067 113.819 67.46C112.372 64.5667 111.649 61.23 111.649 57.45C111.649 53.7633 112.372 50.4733 113.819 47.58C115.312 44.6867 117.319 42.4 119.839 40.72C122.406 39.04 125.322 38.2 128.589 38.2C130.316 38.2 131.972 38.48 133.559 39.04C135.192 39.5533 136.639 40.2767 137.899 41.21C139.206 42.1433 140.256 43.1933 141.049 44.36C141.842 45.48 142.286 46.67 142.379 47.93L139.859 48.35V24.2H149.799V76H140.419L139.999 67.46L141.959 67.67C141.866 68.8367 141.446 69.9567 140.699 71.03C139.952 72.1033 138.949 73.0833 137.689 73.97C136.476 74.81 135.076 75.4867 133.489 76C131.949 76.4667 130.316 76.7 128.589 76.7ZM130.829 68.44C132.696 68.44 134.329 67.9733 135.729 67.04C137.129 66.1067 138.226 64.8233 139.019 63.19C139.812 61.5567 140.209 59.6433 140.209 57.45C140.209 55.3033 139.812 53.4133 139.019 51.78C138.226 50.1 137.129 48.8167 135.729 47.93C134.329 46.9967 132.696 46.53 130.829 46.53C128.962 46.53 127.329 46.9967 125.929 47.93C124.576 48.8167 123.502 50.1 122.709 51.78C121.962 53.4133 121.589 55.3033 121.589 57.45C121.589 59.6433 121.962 61.5567 122.709 63.19C123.502 64.8233 124.576 66.1067 125.929 67.04C127.329 67.9733 128.962 68.44 130.829 68.44ZM160.33 76V38.97H170.27V76H160.33ZM165.23 31.34C163.316 31.34 161.823 30.8733 160.75 29.94C159.676 29.0067 159.14 27.6767 159.14 25.95C159.14 24.3633 159.676 23.08 160.75 22.1C161.87 21.0733 163.363 20.56 165.23 20.56C167.143 20.56 168.636 21.05 169.71 22.03C170.783 22.9633 171.32 24.27 171.32 25.95C171.32 27.5833 170.76 28.89 169.64 29.87C168.566 30.85 167.096 31.34 165.23 31.34ZM190.387 76V36.45H176.107V27H215.587V36.45H200.887V76H190.387ZM229.746 76.7C226.666 76.7 223.889 75.86 221.416 74.18C218.943 72.5 216.983 70.2133 215.536 67.32C214.089 64.4267 213.366 61.1133 213.366 57.38C213.366 53.6467 214.089 50.3567 215.536 47.51C217.029 44.6167 219.036 42.3533 221.556 40.72C224.076 39.04 226.946 38.2 230.166 38.2C231.986 38.2 233.643 38.48 235.136 39.04C236.676 39.5533 238.006 40.2767 239.126 41.21C240.293 42.1433 241.273 43.2167 242.066 44.43C242.859 45.6433 243.419 46.95 243.746 48.35L241.646 48V38.97H251.516V76H241.506V67.11L243.746 66.9C243.373 68.2067 242.766 69.4433 241.926 70.61C241.086 71.7767 240.036 72.8267 238.776 73.76C237.563 74.6467 236.186 75.37 234.646 75.93C233.106 76.4433 231.473 76.7 229.746 76.7ZM232.476 68.09C234.343 68.09 235.976 67.6467 237.376 66.76C238.776 65.8733 239.849 64.6367 240.596 63.05C241.389 61.4167 241.786 59.5267 241.786 57.38C241.786 55.28 241.389 53.4367 240.596 51.85C239.849 50.2633 238.776 49.0267 237.376 48.14C235.976 47.2067 234.343 46.74 232.476 46.74C230.656 46.74 229.046 47.2067 227.646 48.14C226.293 49.0267 225.219 50.2633 224.426 51.85C223.633 53.4367 223.236 55.28 223.236 57.38C223.236 59.5267 223.633 61.4167 224.426 63.05C225.219 64.6367 226.293 65.8733 227.646 66.76C229.046 67.6467 230.656 68.09 232.476 68.09ZM261.552 76V24.2H271.492V76H261.552ZM291.029 64.87L288.089 56.68L305.589 38.97H318.679L291.029 64.87ZM281.579 76V24.2H291.519V76H281.579ZM306.639 76L293.339 59.27L300.339 53.67L318.609 76H306.639Z" fill="url(#paint0_linear_4_78)"/>
<path d="M13.37 76V27H22.96L40.81 56.05L34.51 55.98L52.57 27H61.74V76H51.45V59.2C51.45 55 51.5433 51.22 51.73 47.86C51.9633 44.5 52.3367 41.1633 52.85 37.85L54.11 41.14L39.76 63.4H35.14L21.07 41.28L22.26 37.85C22.7733 40.9767 23.1233 44.1967 23.31 47.51C23.5433 50.7767 23.66 54.6733 23.66 59.2V76H13.37ZM90.6533 76.7C86.6399 76.7 83.1399 75.8833 80.1533 74.25C77.1666 72.6167 74.8333 70.3767 73.1533 67.53C71.4733 64.6833 70.6333 61.4167 70.6333 57.73C70.6333 54.8833 71.0999 52.27 72.0333 49.89C72.9666 47.51 74.2733 45.4567 75.9533 43.73C77.6333 41.9567 79.6166 40.6033 81.9033 39.67C84.2366 38.69 86.7566 38.2 89.4633 38.2C91.9833 38.2 94.3166 38.6667 96.4633 39.6C98.61 40.4867 100.453 41.77 101.993 43.45C103.58 45.0833 104.793 47.02 105.633 49.26C106.473 51.5 106.847 53.95 106.753 56.61L106.683 59.69H76.9333L75.3233 53.6H98.4933L97.3733 54.86V53.32C97.2799 52.06 96.8599 50.9167 96.1133 49.89C95.4133 48.8633 94.5033 48.07 93.3833 47.51C92.2633 46.95 91.0033 46.67 89.6033 46.67C87.5499 46.67 85.7999 47.0667 84.3533 47.86C82.9533 48.6533 81.8799 49.82 81.1333 51.36C80.3866 52.9 80.0133 54.7667 80.0133 56.96C80.0133 59.2 80.4799 61.1367 81.4133 62.77C82.3933 64.4033 83.7466 65.6867 85.4733 66.62C87.2466 67.5067 89.3233 67.95 91.7033 67.95C93.3366 67.95 94.8299 67.6933 96.1833 67.18C97.5366 66.6667 98.9833 65.78 100.523 64.52L105.283 71.17C103.93 72.3833 102.437 73.41 100.803 74.25C99.1699 75.0433 97.4899 75.65 95.7633 76.07C94.0366 76.49 92.3333 76.7 90.6533 76.7ZM128.589 76.7C125.369 76.7 122.476 75.8833 119.909 74.25C117.342 72.57 115.312 70.3067 113.819 67.46C112.372 64.5667 111.649 61.23 111.649 57.45C111.649 53.7633 112.372 50.4733 113.819 47.58C115.312 44.6867 117.319 42.4 119.839 40.72C122.406 39.04 125.322 38.2 128.589 38.2C130.316 38.2 131.972 38.48 133.559 39.04C135.192 39.5533 136.639 40.2767 137.899 41.21C139.206 42.1433 140.256 43.1933 141.049 44.36C141.842 45.48 142.286 46.67 142.379 47.93L139.859 48.35V24.2H149.799V76H140.419L139.999 67.46L141.959 67.67C141.866 68.8367 141.446 69.9567 140.699 71.03C139.952 72.1033 138.949 73.0833 137.689 73.97C136.476 74.81 135.076 75.4867 133.489 76C131.949 76.4667 130.316 76.7 128.589 76.7ZM130.829 68.44C132.696 68.44 134.329 67.9733 135.729 67.04C137.129 66.1067 138.226 64.8233 139.019 63.19C139.812 61.5567 140.209 59.6433 140.209 57.45C140.209 55.3033 139.812 53.4133 139.019 51.78C138.226 50.1 137.129 48.8167 135.729 47.93C134.329 46.9967 132.696 46.53 130.829 46.53C128.962 46.53 127.329 46.9967 125.929 47.93C124.576 48.8167 123.502 50.1 122.709 51.78C121.962 53.4133 121.589 55.3033 121.589 57.45C121.589 59.6433 121.962 61.5567 122.709 63.19C123.502 64.8233 124.576 66.1067 125.929 67.04C127.329 67.9733 128.962 68.44 130.829 68.44ZM160.33 76V38.97H170.27V76H160.33ZM165.23 31.34C163.316 31.34 161.823 30.8733 160.75 29.94C159.676 29.0067 159.14 27.6767 159.14 25.95C159.14 24.3633 159.676 23.08 160.75 22.1C161.87 21.0733 163.363 20.56 165.23 20.56C167.143 20.56 168.636 21.05 169.71 22.03C170.783 22.9633 171.32 24.27 171.32 25.95C171.32 27.5833 170.76 28.89 169.64 29.87C168.566 30.85 167.096 31.34 165.23 31.34ZM190.387 76V36.45H176.107V27H215.587V36.45H200.887V76H190.387ZM229.746 76.7C226.666 76.7 223.889 75.86 221.416 74.18C218.943 72.5 216.983 70.2133 215.536 67.32C214.089 64.4267 213.366 61.1133 213.366 57.38C213.366 53.6467 214.089 50.3567 215.536 47.51C217.029 44.6167 219.036 42.3533 221.556 40.72C224.076 39.04 226.946 38.2 230.166 38.2C231.986 38.2 233.643 38.48 235.136 39.04C236.676 39.5533 238.006 40.2767 239.126 41.21C240.293 42.1433 241.273 43.2167 242.066 44.43C242.859 45.6433 243.419 46.95 243.746 48.35L241.646 48V38.97H251.516V76H241.506V67.11L243.746 66.9C243.373 68.2067 242.766 69.4433 241.926 70.61C241.086 71.7767 240.036 72.8267 238.776 73.76C237.563 74.6467 236.186 75.37 234.646 75.93C233.106 76.4433 231.473 76.7 229.746 76.7ZM232.476 68.09C234.343 68.09 235.976 67.6467 237.376 66.76C238.776 65.8733 239.849 64.6367 240.596 63.05C241.389 61.4167 241.786 59.5267 241.786 57.38C241.786 55.28 241.389 53.4367 240.596 51.85C239.849 50.2633 238.776 49.0267 237.376 48.14C235.976 47.2067 234.343 46.74 232.476 46.74C230.656 46.74 229.046 47.2067 227.646 48.14C226.293 49.0267 225.219 50.2633 224.426 51.85C223.633 53.4367 223.236 55.28 223.236 57.38C223.236 59.5267 223.633 61.4167 224.426 63.05C225.219 64.6367 226.293 65.8733 227.646 66.76C229.046 67.6467 230.656 68.09 232.476 68.09ZM261.552 76V24.2H271.492V76H261.552ZM291.029 64.87L288.089 56.68L305.589 38.97H318.679L291.029 64.87ZM281.579 76V24.2H291.519V76H281.579ZM306.639 76L293.339 59.27L300.339 53.67L318.609 76H306.639Z" fill="url(#paint1_linear_4_78)"/>
<defs>
<linearGradient id="paint0_linear_4_78" x1="7" y1="50" x2="241.036" y2="161.052" gradientUnits="userSpaceOnUse">
<stop stop-color="#1FBBBC"/>
<stop offset="1" stop-color="#007C7D"/>
</linearGradient>
<linearGradient id="paint1_linear_4_78" x1="7" y1="50" x2="289.811" y2="195.726" gradientUnits="userSpaceOnUse">
<stop stop-color="#185C9E" stop-opacity="0"/>
<stop offset="1" stop-color="#185C9E"/>
</linearGradient>
</defs>
</svg>
