<svg width="437" height="100" viewBox="0 0 437 100" fill="none" xmlns="http://www.w3.org/2000/svg">
<g clip-path="url(#clip0_4_63)">
<path d="M129.37 76V27H138.96L156.81 56.05L150.51 55.98L168.57 27H177.74V76H167.45V59.2C167.45 55 167.543 51.22 167.73 47.86C167.963 44.5 168.337 41.1633 168.85 37.85L170.11 41.14L155.76 63.4H151.14L137.07 41.28L138.26 37.85C138.773 40.9767 139.123 44.1967 139.31 47.51C139.543 50.7767 139.66 54.6733 139.66 59.2V76H129.37ZM206.653 76.7C202.64 76.7 199.14 75.8833 196.153 74.25C193.167 72.6167 190.833 70.3767 189.153 67.53C187.473 64.6833 186.633 61.4167 186.633 57.73C186.633 54.8833 187.1 52.27 188.033 49.89C188.967 47.51 190.273 45.4567 191.953 43.73C193.633 41.9567 195.617 40.6033 197.903 39.67C200.237 38.69 202.757 38.2 205.463 38.2C207.983 38.2 210.317 38.6667 212.463 39.6C214.61 40.4867 216.453 41.77 217.993 43.45C219.58 45.0833 220.793 47.02 221.633 49.26C222.473 51.5 222.847 53.95 222.753 56.61L222.683 59.69H192.933L191.323 53.6H214.493L213.373 54.86V53.32C213.28 52.06 212.86 50.9167 212.113 49.89C211.413 48.8633 210.503 48.07 209.383 47.51C208.263 46.95 207.003 46.67 205.603 46.67C203.55 46.67 201.8 47.0667 200.353 47.86C198.953 48.6533 197.88 49.82 197.133 51.36C196.387 52.9 196.013 54.7667 196.013 56.96C196.013 59.2 196.48 61.1367 197.413 62.77C198.393 64.4033 199.747 65.6867 201.473 66.62C203.247 67.5067 205.323 67.95 207.703 67.95C209.337 67.95 210.83 67.6933 212.183 67.18C213.537 66.6667 214.983 65.78 216.523 64.52L221.283 71.17C219.93 72.3833 218.437 73.41 216.803 74.25C215.17 75.0433 213.49 75.65 211.763 76.07C210.037 76.49 208.333 76.7 206.653 76.7ZM244.589 76.7C241.369 76.7 238.476 75.8833 235.909 74.25C233.342 72.57 231.312 70.3067 229.819 67.46C228.372 64.5667 227.649 61.23 227.649 57.45C227.649 53.7633 228.372 50.4733 229.819 47.58C231.312 44.6867 233.319 42.4 235.839 40.72C238.406 39.04 241.322 38.2 244.589 38.2C246.316 38.2 247.972 38.48 249.559 39.04C251.192 39.5533 252.639 40.2767 253.899 41.21C255.206 42.1433 256.256 43.1933 257.049 44.36C257.842 45.48 258.286 46.67 258.379 47.93L255.859 48.35V24.2H265.799V76H256.419L255.999 67.46L257.959 67.67C257.866 68.8367 257.446 69.9567 256.699 71.03C255.952 72.1033 254.949 73.0833 253.689 73.97C252.476 74.81 251.076 75.4867 249.489 76C247.949 76.4667 246.316 76.7 244.589 76.7ZM246.829 68.44C248.696 68.44 250.329 67.9733 251.729 67.04C253.129 66.1067 254.226 64.8233 255.019 63.19C255.812 61.5567 256.209 59.6433 256.209 57.45C256.209 55.3033 255.812 53.4133 255.019 51.78C254.226 50.1 253.129 48.8167 251.729 47.93C250.329 46.9967 248.696 46.53 246.829 46.53C244.962 46.53 243.329 46.9967 241.929 47.93C240.576 48.8167 239.502 50.1 238.709 51.78C237.962 53.4133 237.589 55.3033 237.589 57.45C237.589 59.6433 237.962 61.5567 238.709 63.19C239.502 64.8233 240.576 66.1067 241.929 67.04C243.329 67.9733 244.962 68.44 246.829 68.44ZM276.33 76V38.97H286.27V76H276.33ZM281.23 31.34C279.316 31.34 277.823 30.8733 276.75 29.94C275.676 29.0067 275.14 27.6767 275.14 25.95C275.14 24.3633 275.676 23.08 276.75 22.1C277.87 21.0733 279.363 20.56 281.23 20.56C283.143 20.56 284.636 21.05 285.71 22.03C286.783 22.9633 287.32 24.27 287.32 25.95C287.32 27.5833 286.76 28.89 285.64 29.87C284.566 30.85 283.096 31.34 281.23 31.34ZM306.387 76V36.45H292.107V27H331.587V36.45H316.887V76H306.387ZM345.746 76.7C342.666 76.7 339.889 75.86 337.416 74.18C334.943 72.5 332.983 70.2133 331.536 67.32C330.089 64.4267 329.366 61.1133 329.366 57.38C329.366 53.6467 330.089 50.3567 331.536 47.51C333.029 44.6167 335.036 42.3533 337.556 40.72C340.076 39.04 342.946 38.2 346.166 38.2C347.986 38.2 349.643 38.48 351.136 39.04C352.676 39.5533 354.006 40.2767 355.126 41.21C356.293 42.1433 357.273 43.2167 358.066 44.43C358.859 45.6433 359.419 46.95 359.746 48.35L357.646 48V38.97H367.516V76H357.506V67.11L359.746 66.9C359.373 68.2067 358.766 69.4433 357.926 70.61C357.086 71.7767 356.036 72.8267 354.776 73.76C353.563 74.6467 352.186 75.37 350.646 75.93C349.106 76.4433 347.473 76.7 345.746 76.7ZM348.476 68.09C350.343 68.09 351.976 67.6467 353.376 66.76C354.776 65.8733 355.849 64.6367 356.596 63.05C357.389 61.4167 357.786 59.5267 357.786 57.38C357.786 55.28 357.389 53.4367 356.596 51.85C355.849 50.2633 354.776 49.0267 353.376 48.14C351.976 47.2067 350.343 46.74 348.476 46.74C346.656 46.74 345.046 47.2067 343.646 48.14C342.293 49.0267 341.219 50.2633 340.426 51.85C339.633 53.4367 339.236 55.28 339.236 57.38C339.236 59.5267 339.633 61.4167 340.426 63.05C341.219 64.6367 342.293 65.8733 343.646 66.76C345.046 67.6467 346.656 68.09 348.476 68.09ZM377.552 76V24.2H387.492V76H377.552ZM407.029 64.87L404.089 56.68L421.589 38.97H434.679L407.029 64.87ZM397.579 76V24.2H407.519V76H397.579ZM422.639 76L409.339 59.27L416.339 53.67L434.609 76H422.639Z" fill="url(#paint0_linear_4_63)"/>
<path d="M129.37 76V27H138.96L156.81 56.05L150.51 55.98L168.57 27H177.74V76H167.45V59.2C167.45 55 167.543 51.22 167.73 47.86C167.963 44.5 168.337 41.1633 168.85 37.85L170.11 41.14L155.76 63.4H151.14L137.07 41.28L138.26 37.85C138.773 40.9767 139.123 44.1967 139.31 47.51C139.543 50.7767 139.66 54.6733 139.66 59.2V76H129.37ZM206.653 76.7C202.64 76.7 199.14 75.8833 196.153 74.25C193.167 72.6167 190.833 70.3767 189.153 67.53C187.473 64.6833 186.633 61.4167 186.633 57.73C186.633 54.8833 187.1 52.27 188.033 49.89C188.967 47.51 190.273 45.4567 191.953 43.73C193.633 41.9567 195.617 40.6033 197.903 39.67C200.237 38.69 202.757 38.2 205.463 38.2C207.983 38.2 210.317 38.6667 212.463 39.6C214.61 40.4867 216.453 41.77 217.993 43.45C219.58 45.0833 220.793 47.02 221.633 49.26C222.473 51.5 222.847 53.95 222.753 56.61L222.683 59.69H192.933L191.323 53.6H214.493L213.373 54.86V53.32C213.28 52.06 212.86 50.9167 212.113 49.89C211.413 48.8633 210.503 48.07 209.383 47.51C208.263 46.95 207.003 46.67 205.603 46.67C203.55 46.67 201.8 47.0667 200.353 47.86C198.953 48.6533 197.88 49.82 197.133 51.36C196.387 52.9 196.013 54.7667 196.013 56.96C196.013 59.2 196.48 61.1367 197.413 62.77C198.393 64.4033 199.747 65.6867 201.473 66.62C203.247 67.5067 205.323 67.95 207.703 67.95C209.337 67.95 210.83 67.6933 212.183 67.18C213.537 66.6667 214.983 65.78 216.523 64.52L221.283 71.17C219.93 72.3833 218.437 73.41 216.803 74.25C215.17 75.0433 213.49 75.65 211.763 76.07C210.037 76.49 208.333 76.7 206.653 76.7ZM244.589 76.7C241.369 76.7 238.476 75.8833 235.909 74.25C233.342 72.57 231.312 70.3067 229.819 67.46C228.372 64.5667 227.649 61.23 227.649 57.45C227.649 53.7633 228.372 50.4733 229.819 47.58C231.312 44.6867 233.319 42.4 235.839 40.72C238.406 39.04 241.322 38.2 244.589 38.2C246.316 38.2 247.972 38.48 249.559 39.04C251.192 39.5533 252.639 40.2767 253.899 41.21C255.206 42.1433 256.256 43.1933 257.049 44.36C257.842 45.48 258.286 46.67 258.379 47.93L255.859 48.35V24.2H265.799V76H256.419L255.999 67.46L257.959 67.67C257.866 68.8367 257.446 69.9567 256.699 71.03C255.952 72.1033 254.949 73.0833 253.689 73.97C252.476 74.81 251.076 75.4867 249.489 76C247.949 76.4667 246.316 76.7 244.589 76.7ZM246.829 68.44C248.696 68.44 250.329 67.9733 251.729 67.04C253.129 66.1067 254.226 64.8233 255.019 63.19C255.812 61.5567 256.209 59.6433 256.209 57.45C256.209 55.3033 255.812 53.4133 255.019 51.78C254.226 50.1 253.129 48.8167 251.729 47.93C250.329 46.9967 248.696 46.53 246.829 46.53C244.962 46.53 243.329 46.9967 241.929 47.93C240.576 48.8167 239.502 50.1 238.709 51.78C237.962 53.4133 237.589 55.3033 237.589 57.45C237.589 59.6433 237.962 61.5567 238.709 63.19C239.502 64.8233 240.576 66.1067 241.929 67.04C243.329 67.9733 244.962 68.44 246.829 68.44ZM276.33 76V38.97H286.27V76H276.33ZM281.23 31.34C279.316 31.34 277.823 30.8733 276.75 29.94C275.676 29.0067 275.14 27.6767 275.14 25.95C275.14 24.3633 275.676 23.08 276.75 22.1C277.87 21.0733 279.363 20.56 281.23 20.56C283.143 20.56 284.636 21.05 285.71 22.03C286.783 22.9633 287.32 24.27 287.32 25.95C287.32 27.5833 286.76 28.89 285.64 29.87C284.566 30.85 283.096 31.34 281.23 31.34ZM306.387 76V36.45H292.107V27H331.587V36.45H316.887V76H306.387ZM345.746 76.7C342.666 76.7 339.889 75.86 337.416 74.18C334.943 72.5 332.983 70.2133 331.536 67.32C330.089 64.4267 329.366 61.1133 329.366 57.38C329.366 53.6467 330.089 50.3567 331.536 47.51C333.029 44.6167 335.036 42.3533 337.556 40.72C340.076 39.04 342.946 38.2 346.166 38.2C347.986 38.2 349.643 38.48 351.136 39.04C352.676 39.5533 354.006 40.2767 355.126 41.21C356.293 42.1433 357.273 43.2167 358.066 44.43C358.859 45.6433 359.419 46.95 359.746 48.35L357.646 48V38.97H367.516V76H357.506V67.11L359.746 66.9C359.373 68.2067 358.766 69.4433 357.926 70.61C357.086 71.7767 356.036 72.8267 354.776 73.76C353.563 74.6467 352.186 75.37 350.646 75.93C349.106 76.4433 347.473 76.7 345.746 76.7ZM348.476 68.09C350.343 68.09 351.976 67.6467 353.376 66.76C354.776 65.8733 355.849 64.6367 356.596 63.05C357.389 61.4167 357.786 59.5267 357.786 57.38C357.786 55.28 357.389 53.4367 356.596 51.85C355.849 50.2633 354.776 49.0267 353.376 48.14C351.976 47.2067 350.343 46.74 348.476 46.74C346.656 46.74 345.046 47.2067 343.646 48.14C342.293 49.0267 341.219 50.2633 340.426 51.85C339.633 53.4367 339.236 55.28 339.236 57.38C339.236 59.5267 339.633 61.4167 340.426 63.05C341.219 64.6367 342.293 65.8733 343.646 66.76C345.046 67.6467 346.656 68.09 348.476 68.09ZM377.552 76V24.2H387.492V76H377.552ZM407.029 64.87L404.089 56.68L421.589 38.97H434.679L407.029 64.87ZM397.579 76V24.2H407.519V76H397.579ZM422.639 76L409.339 59.27L416.339 53.67L434.609 76H422.639Z" fill="url(#paint1_linear_4_63)"/>
<path d="M58.7318 41.6503C70.7575 53.0005 80.1277 64.5025 85.6037 73.811C88.3602 78.4966 89.9734 82.3643 90.5707 85.2155C91.0907 87.698 90.6926 88.5517 90.6061 88.7042C90.4504 88.7915 89.5772 89.1968 86.9977 88.7538C84.035 88.245 79.9969 86.7787 75.0854 84.2271C65.3283 79.1581 53.2094 70.378 41.1838 59.0278C29.1582 47.6777 19.788 36.1757 14.3119 26.8672C11.5554 22.1815 9.94229 18.3139 9.345 15.4626C8.82497 12.9802 9.22306 12.1265 9.30956 11.9739C9.46522 11.8867 10.3384 11.4814 12.918 11.9244C15.8807 12.4332 19.9188 13.8994 24.8303 16.451C34.5874 21.5201 46.7062 30.3002 58.7318 41.6503Z" stroke="#1B7E8B" stroke-width="10.475"/>
<g filter="url(#filter0_i_4_63)">
<path fill-rule="evenodd" clip-rule="evenodd" d="M60.8654 88.109C60.8658 93.8253 56.2323 98.4597 50.5159 98.4602L48.8241 98.4603C43.1078 98.4608 38.4734 93.8272 38.4729 88.1109L38.4708 63.7194L63.4401 38.7458L87.8317 38.7437C93.548 38.7432 98.1824 43.3768 98.1828 49.0931L98.183 50.785C98.1835 56.5013 93.5499 61.1357 87.8336 61.1362L60.8631 61.1385L60.8654 88.109ZM60.861 36.7507L60.8589 11.7755C60.8584 6.05922 56.224 1.42561 50.5077 1.4261L48.8158 1.42625C43.0995 1.42673 38.4659 6.06112 38.4664 11.7774L38.4687 38.7479L11.4982 38.7502C5.78187 38.7507 1.14826 43.3851 1.14875 49.1014L1.1489 50.7933C1.14938 56.5096 5.78377 61.1432 11.5001 61.1427L36.4753 61.1406L60.861 36.7507Z" fill="url(#paint2_linear_4_63)"/>
</g>
<g filter="url(#filter1_i_4_63)">
<path fill-rule="evenodd" clip-rule="evenodd" d="M60.8654 88.109C60.8658 93.8253 56.2323 98.4597 50.5159 98.4602L48.8241 98.4603C43.1078 98.4608 38.4734 93.8272 38.4729 88.1109L38.4708 63.7194L63.4401 38.7458L87.8317 38.7437C93.548 38.7432 98.1824 43.3768 98.1828 49.0931L98.183 50.785C98.1835 56.5013 93.5499 61.1357 87.8336 61.1362L60.8631 61.1385L60.8654 88.109ZM60.861 36.7507L60.8589 11.7755C60.8584 6.05922 56.224 1.42561 50.5077 1.4261L48.8158 1.42625C43.0995 1.42673 38.4659 6.06112 38.4664 11.7774L38.4687 38.7479L11.4982 38.7502C5.78187 38.7507 1.14826 43.3851 1.14875 49.1014L1.1489 50.7933C1.14938 56.5096 5.78377 61.1432 11.5001 61.1427L36.4753 61.1406L60.861 36.7507Z" fill="url(#paint3_linear_4_63)"/>
</g>
<g filter="url(#filter2_d_4_63)">
<path d="M16.7049 30.493C22.1835 39.0172 29.9211 48.5528 40.1375 58.1953C47.8794 65.5024 56.8207 72.7844 65.7308 78.5808" stroke="url(#paint4_linear_4_63)" stroke-width="10.475"/>
</g>
<path d="M88.5844 79.8C89.5297 82.8158 95.4669 92.511 84.6563 88.311C70.4674 83.3683 53.5125 70.8191 40.1375 58.1953C25.8585 44.7183 16.4215 31.4503 11.2268 20.8606C3.64244 5.3993 16.8395 12.882 20.4969 14.3313" stroke="url(#paint5_linear_4_63)" stroke-width="10.475" stroke-linecap="round"/>
</g>
<defs>
<filter id="filter0_i_4_63" x="-1.00623" y="-0.728884" width="99.1892" height="99.1892" filterUnits="userSpaceOnUse" color-interpolation-filters="sRGB">
<feFlood flood-opacity="0" result="BackgroundImageFix"/>
<feBlend mode="normal" in="SourceGraphic" in2="BackgroundImageFix" result="shape"/>
<feColorMatrix in="SourceAlpha" type="matrix" values="0 0 0 0 0 0 0 0 0 0 0 0 0 0 0 0 0 0 127 0" result="hardAlpha"/>
<feOffset dx="-2.15499" dy="-2.15499"/>
<feGaussianBlur stdDeviation="1.61624"/>
<feComposite in2="hardAlpha" operator="arithmetic" k2="-1" k3="1"/>
<feColorMatrix type="matrix" values="0 0 0 0 0.431667 0 0 0 0 0.775383 0 0 0 0 0.925 0 0 0 0.6 0"/>
<feBlend mode="normal" in2="shape" result="effect1_innerShadow_4_63"/>
</filter>
<filter id="filter1_i_4_63" x="1.14876" y="1.4261" width="97.0342" height="99.1892" filterUnits="userSpaceOnUse" color-interpolation-filters="sRGB">
<feFlood flood-opacity="0" result="BackgroundImageFix"/>
<feBlend mode="normal" in="SourceGraphic" in2="BackgroundImageFix" result="shape"/>
<feColorMatrix in="SourceAlpha" type="matrix" values="0 0 0 0 0 0 0 0 0 0 0 0 0 0 0 0 0 0 127 0" result="hardAlpha"/>
<feOffset dy="2.15499"/>
<feGaussianBlur stdDeviation="1.61624"/>
<feComposite in2="hardAlpha" operator="arithmetic" k2="-1" k3="1"/>
<feColorMatrix type="matrix" values="0 0 0 0 0.392157 0 0 0 0 0.690196 0 0 0 0 0.976471 0 0 0 0.7 0"/>
<feBlend mode="normal" in2="shape" result="effect1_innerShadow_4_63"/>
</filter>
<filter id="filter2_d_4_63" x="8.94867" y="27.7732" width="62.9899" height="62.6222" filterUnits="userSpaceOnUse" color-interpolation-filters="sRGB">
<feFlood flood-opacity="0" result="BackgroundImageFix"/>
<feColorMatrix in="SourceAlpha" type="matrix" values="0 0 0 0 0 0 0 0 0 0 0 0 0 0 0 0 0 0 127 0" result="hardAlpha"/>
<feOffset dy="4.30997"/>
<feGaussianBlur stdDeviation="1.61624"/>
<feComposite in2="hardAlpha" operator="out"/>
<feColorMatrix type="matrix" values="0 0 0 0 0.109462 0 0 0 0 0.154646 0 0 0 0 0.270833 0 0 0 0.2 0"/>
<feBlend mode="normal" in2="BackgroundImageFix" result="effect1_dropShadow_4_63"/>
<feBlend mode="normal" in="SourceGraphic" in2="effect1_dropShadow_4_63" result="shape"/>
</filter>
<linearGradient id="paint0_linear_4_63" x1="123" y1="50" x2="357.036" y2="161.052" gradientUnits="userSpaceOnUse">
<stop stop-color="#1FBBBC"/>
<stop offset="1" stop-color="#007C7D"/>
</linearGradient>
<linearGradient id="paint1_linear_4_63" x1="123" y1="50" x2="405.811" y2="195.726" gradientUnits="userSpaceOnUse">
<stop stop-color="#185C9E" stop-opacity="0"/>
<stop offset="1" stop-color="#185C9E"/>
</linearGradient>
<linearGradient id="paint2_linear_4_63" x1="98.187" y1="98.4561" x2="49.6617" y2="1.42617" gradientUnits="userSpaceOnUse">
<stop offset="0.355" stop-color="#0D4682"/>
<stop offset="1" stop-color="#54ABD0"/>
</linearGradient>
<linearGradient id="paint3_linear_4_63" x1="98.187" y1="98.4561" x2="49.6617" y2="1.42617" gradientUnits="userSpaceOnUse">
<stop offset="0.355" stop-color="#185C9E"/>
<stop offset="1" stop-color="#3A80C4"/>
</linearGradient>
<linearGradient id="paint4_linear_4_63" x1="41.3266" y1="58.9105" x2="53.6277" y2="45.8774" gradientUnits="userSpaceOnUse">
<stop stop-color="#1FBBBC"/>
<stop offset="0.81" stop-color="#1B7E8B"/>
</linearGradient>
<linearGradient id="paint5_linear_4_63" x1="41.3266" y1="58.9105" x2="53.6277" y2="45.8773" gradientUnits="userSpaceOnUse">
<stop stop-color="#1FBBBC"/>
<stop offset="0.75" stop-color="#1B7E8B"/>
</linearGradient>
<clipPath id="clip0_4_63">
<rect width="437" height="100" fill="white"/>
</clipPath>
</defs>
</svg>
