<svg width="100" height="100" viewBox="0 0 100 100" fill="none" xmlns="http://www.w3.org/2000/svg">
<g clip-path="url(#clip0_1_2)">
<path d="M58.7318 41.6503C70.7575 53.0005 80.1277 64.5025 85.6037 73.811C88.3602 78.4966 89.9734 82.3643 90.5707 85.2155C91.0907 87.698 90.6926 88.5517 90.6061 88.7042C90.4504 88.7915 89.5772 89.1968 86.9977 88.7538C84.035 88.245 79.9969 86.7787 75.0854 84.2271C65.3283 79.1581 53.2094 70.378 41.1838 59.0278C29.1582 47.6777 19.788 36.1757 14.3119 26.8672C11.5554 22.1815 9.94229 18.3139 9.345 15.4626C8.82497 12.9802 9.22306 12.1265 9.30956 11.9739C9.46522 11.8867 10.3384 11.4814 12.918 11.9244C15.8807 12.4332 19.9188 13.8994 24.8303 16.451C34.5874 21.5201 46.7062 30.3002 58.7318 41.6503Z" stroke="#1B7E8B" stroke-width="10.475"/>
<g filter="url(#filter0_i_1_2)">
<path fill-rule="evenodd" clip-rule="evenodd" d="M60.8654 88.109C60.8658 93.8253 56.2323 98.4597 50.5159 98.4602L48.8241 98.4603C43.1078 98.4608 38.4734 93.8272 38.4729 88.1109L38.4708 63.7194L63.4401 38.7458L87.8317 38.7437C93.548 38.7432 98.1824 43.3768 98.1828 49.0931L98.183 50.785C98.1835 56.5013 93.5499 61.1357 87.8336 61.1362L60.8631 61.1385L60.8654 88.109ZM60.861 36.7507L60.8589 11.7755C60.8584 6.05922 56.224 1.42561 50.5077 1.4261L48.8158 1.42625C43.0995 1.42673 38.4659 6.06112 38.4664 11.7774L38.4687 38.7479L11.4982 38.7502C5.78187 38.7507 1.14826 43.3851 1.14875 49.1014L1.1489 50.7933C1.14938 56.5096 5.78377 61.1432 11.5001 61.1427L36.4753 61.1406L60.861 36.7507Z" fill="url(#paint0_linear_1_2)"/>
</g>
<g filter="url(#filter1_i_1_2)">
<path fill-rule="evenodd" clip-rule="evenodd" d="M60.8654 88.109C60.8658 93.8253 56.2323 98.4597 50.5159 98.4602L48.8241 98.4603C43.1078 98.4608 38.4734 93.8272 38.4729 88.1109L38.4708 63.7194L63.4401 38.7458L87.8317 38.7437C93.548 38.7432 98.1824 43.3768 98.1828 49.0931L98.183 50.785C98.1835 56.5013 93.5499 61.1357 87.8336 61.1362L60.8631 61.1385L60.8654 88.109ZM60.861 36.7507L60.8589 11.7755C60.8584 6.05922 56.224 1.42561 50.5077 1.4261L48.8158 1.42625C43.0995 1.42673 38.4659 6.06112 38.4664 11.7774L38.4687 38.7479L11.4982 38.7502C5.78187 38.7507 1.14826 43.3851 1.14875 49.1014L1.1489 50.7933C1.14938 56.5096 5.78377 61.1432 11.5001 61.1427L36.4753 61.1406L60.861 36.7507Z" fill="url(#paint1_linear_1_2)"/>
</g>
<g filter="url(#filter2_d_1_2)">
<path d="M16.7048 30.493C22.1835 39.0172 29.9211 48.5528 40.1375 58.1953C47.8794 65.5024 56.8207 72.7844 65.7308 78.5808" stroke="url(#paint2_linear_1_2)" stroke-width="10.475"/>
</g>
<path d="M88.5844 79.8C89.5297 82.8158 95.4669 92.511 84.6563 88.311C70.4674 83.3683 53.5125 70.8191 40.1375 58.1953C25.8585 44.7183 16.4215 31.4503 11.2268 20.8606C3.64244 5.3993 16.8395 12.882 20.4969 14.3313" stroke="url(#paint3_linear_1_2)" stroke-width="10.475" stroke-linecap="round"/>
</g>
<defs>
<filter id="filter0_i_1_2" x="-1.00624" y="-0.728884" width="99.1892" height="99.1892" filterUnits="userSpaceOnUse" color-interpolation-filters="sRGB">
<feFlood flood-opacity="0" result="BackgroundImageFix"/>
<feBlend mode="normal" in="SourceGraphic" in2="BackgroundImageFix" result="shape"/>
<feColorMatrix in="SourceAlpha" type="matrix" values="0 0 0 0 0 0 0 0 0 0 0 0 0 0 0 0 0 0 127 0" result="hardAlpha"/>
<feOffset dx="-2.15499" dy="-2.15499"/>
<feGaussianBlur stdDeviation="1.61624"/>
<feComposite in2="hardAlpha" operator="arithmetic" k2="-1" k3="1"/>
<feColorMatrix type="matrix" values="0 0 0 0 0.431667 0 0 0 0 0.775383 0 0 0 0 0.925 0 0 0 0.6 0"/>
<feBlend mode="normal" in2="shape" result="effect1_innerShadow_1_2"/>
</filter>
<filter id="filter1_i_1_2" x="1.14875" y="1.4261" width="97.0342" height="99.1892" filterUnits="userSpaceOnUse" color-interpolation-filters="sRGB">
<feFlood flood-opacity="0" result="BackgroundImageFix"/>
<feBlend mode="normal" in="SourceGraphic" in2="BackgroundImageFix" result="shape"/>
<feColorMatrix in="SourceAlpha" type="matrix" values="0 0 0 0 0 0 0 0 0 0 0 0 0 0 0 0 0 0 127 0" result="hardAlpha"/>
<feOffset dy="2.15499"/>
<feGaussianBlur stdDeviation="1.61624"/>
<feComposite in2="hardAlpha" operator="arithmetic" k2="-1" k3="1"/>
<feColorMatrix type="matrix" values="0 0 0 0 0.394062 0 0 0 0 0.690302 0 0 0 0 0.975 0 0 0 0.7 0"/>
<feBlend mode="normal" in2="shape" result="effect1_innerShadow_1_2"/>
</filter>
<filter id="filter2_d_1_2" x="8.94866" y="27.7732" width="62.9899" height="62.6222" filterUnits="userSpaceOnUse" color-interpolation-filters="sRGB">
<feFlood flood-opacity="0" result="BackgroundImageFix"/>
<feColorMatrix in="SourceAlpha" type="matrix" values="0 0 0 0 0 0 0 0 0 0 0 0 0 0 0 0 0 0 127 0" result="hardAlpha"/>
<feOffset dy="4.30997"/>
<feGaussianBlur stdDeviation="1.61624"/>
<feComposite in2="hardAlpha" operator="out"/>
<feColorMatrix type="matrix" values="0 0 0 0 0.109462 0 0 0 0 0.154646 0 0 0 0 0.270833 0 0 0 0.2 0"/>
<feBlend mode="normal" in2="BackgroundImageFix" result="effect1_dropShadow_1_2"/>
<feBlend mode="normal" in="SourceGraphic" in2="effect1_dropShadow_1_2" result="shape"/>
</filter>
<linearGradient id="paint0_linear_1_2" x1="98.187" y1="98.4561" x2="49.6617" y2="1.42617" gradientUnits="userSpaceOnUse">
<stop offset="0.355" stop-color="#0D4682"/>
<stop offset="1" stop-color="#54ABD0"/>
</linearGradient>
<linearGradient id="paint1_linear_1_2" x1="98.187" y1="98.4561" x2="49.6617" y2="1.42617" gradientUnits="userSpaceOnUse">
<stop offset="0.355" stop-color="#185C9E"/>
<stop offset="1" stop-color="#3A80C4"/>
</linearGradient>
<linearGradient id="paint2_linear_1_2" x1="41.3266" y1="58.9105" x2="53.6277" y2="45.8774" gradientUnits="userSpaceOnUse">
<stop stop-color="#1FBBBC"/>
<stop offset="0.81" stop-color="#1B7E8B"/>
</linearGradient>
<linearGradient id="paint3_linear_1_2" x1="41.3266" y1="58.9105" x2="53.6277" y2="45.8773" gradientUnits="userSpaceOnUse">
<stop stop-color="#1FBBBC"/>
<stop offset="0.75" stop-color="#1B7E8B"/>
</linearGradient>
<clipPath id="clip0_1_2">
<rect width="100" height="100" fill="white"/>
</clipPath>
</defs>
</svg>
