<svg width="500" height="100" viewBox="0 0 500 100" fill="none" xmlns="http://www.w3.org/2000/svg">
<g clip-path="url(#clip0_4_63)">
<path d="M148.1 68.6C145.18 68.6 142.54 68.3 140.18 67.7C137.82 67.06 135.68 66.14 133.76 64.94C131.88 63.74 130.18 62.3 128.66 60.62L133.82 53.9C136.22 56.5 138.62 58.32 141.02 59.36C143.46 60.4 146 60.92 148.64 60.92C149.96 60.92 151.24 60.76 152.48 60.44C153.72 60.08 154.72 59.56 155.48 58.88C156.24 58.16 156.62 57.28 156.62 56.24C156.62 55.52 156.42 54.9 156.02 54.38C155.66 53.86 155.14 53.42 154.46 53.06C153.78 52.7 152.98 52.38 152.06 52.1C151.18 51.78 150.24 51.52 149.24 51.32C148.28 51.12 147.26 50.96 146.18 50.84C143.74 50.44 141.56 49.88 139.64 49.16C137.72 48.44 136.1 47.56 134.78 46.52C133.5 45.44 132.52 44.2 131.84 42.8C131.16 41.36 130.82 39.72 130.82 37.88C130.82 36 131.26 34.28 132.14 32.72C133.06 31.12 134.3 29.76 135.86 28.64C137.46 27.52 139.3 26.66 141.38 26.06C143.5 25.46 145.74 25.16 148.1 25.16C150.82 25.16 153.22 25.44 155.3 26C157.42 26.56 159.28 27.36 160.88 28.4C162.48 29.44 163.8 30.68 164.84 32.12L159.56 38C158.6 36.88 157.5 35.94 156.26 35.18C155.02 34.42 153.7 33.86 152.3 33.5C150.94 33.1 149.52 32.9 148.04 32.9C146.52 32.9 145.16 33.08 143.96 33.44C142.8 33.76 141.86 34.26 141.14 34.94C140.46 35.58 140.12 36.38 140.12 37.34C140.12 38.14 140.36 38.84 140.84 39.44C141.36 40 142.04 40.48 142.88 40.88C143.76 41.28 144.78 41.62 145.94 41.9C147.1 42.18 148.3 42.42 149.54 42.62C151.82 42.98 153.96 43.46 155.96 44.06C157.96 44.66 159.7 45.42 161.18 46.34C162.66 47.26 163.8 48.44 164.6 49.88C165.44 51.28 165.86 52.98 165.86 54.98C165.86 57.82 165.1 60.26 163.58 62.3C162.1 64.34 160.02 65.9 157.34 66.98C154.66 68.06 151.58 68.6 148.1 68.6ZM177.493 68V60.08H186.193V33.92H177.493V26H203.893V33.92H195.193V60.08H203.893V68H177.493ZM218.574 68V26H227.574V59.9H249.954V68H218.574ZM256.709 68L274.829 26H283.289L301.349 68H291.989L281.729 43.94C281.409 43.22 281.069 42.4 280.709 41.48C280.389 40.56 280.049 39.62 279.689 38.66C279.369 37.7 279.049 36.76 278.729 35.84C278.449 34.92 278.189 34.1 277.949 33.38L279.809 33.32C279.569 34.24 279.289 35.16 278.969 36.08C278.689 36.96 278.369 37.86 278.009 38.78C277.689 39.7 277.349 40.6 276.989 41.48C276.629 42.36 276.269 43.24 275.909 44.12L265.649 68H256.709ZM264.989 59.42L268.049 52.16H289.589L291.929 59.42H264.989ZM310.918 68V26H331.798C334.598 26 337.078 26.58 339.238 27.74C341.438 28.86 343.138 30.44 344.338 32.48C345.578 34.48 346.198 36.76 346.198 39.32C346.198 41.88 345.558 44.2 344.278 46.28C342.998 48.36 341.238 50.02 338.998 51.26C336.798 52.46 334.358 53.06 331.678 53.06H319.618V68H310.918ZM337.738 68L325.618 49.04L334.978 47.54L348.298 68.06L337.738 68ZM319.618 45.74H331.018C332.218 45.74 333.278 45.48 334.198 44.96C335.118 44.44 335.838 43.72 336.358 42.8C336.878 41.88 337.138 40.84 337.138 39.68C337.138 38.52 336.838 37.5 336.238 36.62C335.678 35.74 334.878 35.06 333.838 34.58C332.838 34.06 331.658 33.8 330.298 33.8H319.618V45.74ZM379.095 68.36C375.295 68.36 371.935 67.58 369.015 66.02C366.135 64.46 363.875 62.32 362.235 59.6C360.595 56.84 359.775 53.74 359.775 50.3V25.94H368.835V49.88C368.835 51.84 369.275 53.6 370.155 55.16C371.075 56.72 372.295 57.96 373.815 58.88C375.375 59.8 377.135 60.26 379.095 60.26C381.095 60.26 382.875 59.8 384.435 58.88C386.035 57.96 387.295 56.72 388.215 55.16C389.135 53.6 389.595 51.84 389.595 49.88V25.94H398.355V50.3C398.355 53.74 397.535 56.84 395.895 59.6C394.255 62.32 391.975 64.46 389.055 66.02C386.175 67.58 382.855 68.36 379.095 68.36ZM427.944 68.6C425.024 68.6 422.384 68.3 420.024 67.7C417.664 67.06 415.524 66.14 413.604 64.94C411.724 63.74 410.024 62.3 408.504 60.62L413.664 53.9C416.064 56.5 418.464 58.32 420.864 59.36C423.304 60.4 425.844 60.92 428.484 60.92C429.804 60.92 431.084 60.76 432.324 60.44C433.564 60.08 434.564 59.56 435.324 58.88C436.084 58.16 436.464 57.28 436.464 56.24C436.464 55.52 436.264 54.9 435.864 54.38C435.504 53.86 434.984 53.42 434.304 53.06C433.624 52.7 432.824 52.38 431.904 52.1C431.024 51.78 430.084 51.52 429.084 51.32C428.124 51.12 427.104 50.96 426.024 50.84C423.584 50.44 421.404 49.88 419.484 49.16C417.564 48.44 415.944 47.56 414.624 46.52C413.344 45.44 412.364 44.2 411.684 42.8C411.004 41.36 410.664 39.72 410.664 37.88C410.664 36 411.104 34.28 411.984 32.72C412.904 31.12 414.144 29.76 415.704 28.64C417.304 27.52 419.144 26.66 421.224 26.06C423.344 25.46 425.584 25.16 427.944 25.16C430.664 25.16 433.064 25.44 435.144 26C437.264 26.56 439.124 27.36 440.724 28.4C442.324 29.44 443.644 30.68 444.684 32.12L439.404 38C438.444 36.88 437.344 35.94 436.104 35.18C434.864 34.42 433.544 33.86 432.144 33.5C430.784 33.1 429.364 32.9 427.884 32.9C426.364 32.9 425.004 33.08 423.804 33.44C422.644 33.76 421.704 34.26 420.984 34.94C420.304 35.58 419.964 36.38 419.964 37.34C419.964 38.14 420.204 38.84 420.684 39.44C421.204 40 421.884 40.48 422.724 40.88C423.604 41.28 424.624 41.62 425.784 41.9C426.944 42.18 428.144 42.42 429.384 42.62C431.664 42.98 433.804 43.46 435.804 44.06C437.804 44.66 439.544 45.42 441.024 46.34C442.504 47.26 443.644 48.44 444.444 49.88C445.284 51.28 445.704 52.98 445.704 54.98C445.704 57.82 444.944 60.26 443.424 62.3C441.944 64.34 439.864 65.9 437.184 66.98C434.504 68.06 431.424 68.6 427.944 68.6ZM452.237 68L470.357 26H478.817L496.877 68H487.517L477.257 43.94C476.937 43.22 476.597 42.4 476.237 41.48C475.917 40.56 475.577 39.62 475.217 38.66C474.897 37.7 474.577 36.76 474.257 35.84C473.977 34.92 473.717 34.1 473.477 33.38L475.337 33.32C475.097 34.24 474.817 35.16 474.497 36.08C474.217 36.96 473.897 37.86 473.537 38.78C473.217 39.7 472.877 40.6 472.517 41.48C472.157 42.36 471.797 43.24 471.437 44.12L461.177 68H452.237ZM460.517 59.42L463.577 52.16H485.117L487.457 59.42H460.517Z" fill="url(#paint0_linear_4_63)"/>
<path d="M148.1 68.6C145.18 68.6 142.54 68.3 140.18 67.7C137.82 67.06 135.68 66.14 133.76 64.94C131.88 63.74 130.18 62.3 128.66 60.62L133.82 53.9C136.22 56.5 138.62 58.32 141.02 59.36C143.46 60.4 146 60.92 148.64 60.92C149.96 60.92 151.24 60.76 152.48 60.44C153.72 60.08 154.72 59.56 155.48 58.88C156.24 58.16 156.62 57.28 156.62 56.24C156.62 55.52 156.42 54.9 156.02 54.38C155.66 53.86 155.14 53.42 154.46 53.06C153.78 52.7 152.98 52.38 152.06 52.1C151.18 51.78 150.24 51.52 149.24 51.32C148.28 51.12 147.26 50.96 146.18 50.84C143.74 50.44 141.56 49.88 139.64 49.16C137.72 48.44 136.1 47.56 134.78 46.52C133.5 45.44 132.52 44.2 131.84 42.8C131.16 41.36 130.82 39.72 130.82 37.88C130.82 36 131.26 34.28 132.14 32.72C133.06 31.12 134.3 29.76 135.86 28.64C137.46 27.52 139.3 26.66 141.38 26.06C143.5 25.46 145.74 25.16 148.1 25.16C150.82 25.16 153.22 25.44 155.3 26C157.42 26.56 159.28 27.36 160.88 28.4C162.48 29.44 163.8 30.68 164.84 32.12L159.56 38C158.6 36.88 157.5 35.94 156.26 35.18C155.02 34.42 153.7 33.86 152.3 33.5C150.94 33.1 149.52 32.9 148.04 32.9C146.52 32.9 145.16 33.08 143.96 33.44C142.8 33.76 141.86 34.26 141.14 34.94C140.46 35.58 140.12 36.38 140.12 37.34C140.12 38.14 140.36 38.84 140.84 39.44C141.36 40 142.04 40.48 142.88 40.88C143.76 41.28 144.78 41.62 145.94 41.9C147.1 42.18 148.3 42.42 149.54 42.62C151.82 42.98 153.96 43.46 155.96 44.06C157.96 44.66 159.7 45.42 161.18 46.34C162.66 47.26 163.8 48.44 164.6 49.88C165.44 51.28 165.86 52.98 165.86 54.98C165.86 57.82 165.1 60.26 163.58 62.3C162.1 64.34 160.02 65.9 157.34 66.98C154.66 68.06 151.58 68.6 148.1 68.6ZM177.493 68V60.08H186.193V33.92H177.493V26H203.893V33.92H195.193V60.08H203.893V68H177.493ZM218.574 68V26H227.574V59.9H249.954V68H218.574ZM256.709 68L274.829 26H283.289L301.349 68H291.989L281.729 43.94C281.409 43.22 281.069 42.4 280.709 41.48C280.389 40.56 280.049 39.62 279.689 38.66C279.369 37.7 279.049 36.76 278.729 35.84C278.449 34.92 278.189 34.1 277.949 33.38L279.809 33.32C279.569 34.24 279.289 35.16 278.969 36.08C278.689 36.96 278.369 37.86 278.009 38.78C277.689 39.7 277.349 40.6 276.989 41.48C276.629 42.36 276.269 43.24 275.909 44.12L265.649 68H256.709ZM264.989 59.42L268.049 52.16H289.589L291.929 59.42H264.989ZM310.918 68V26H331.798C334.598 26 337.078 26.58 339.238 27.74C341.438 28.86 343.138 30.44 344.338 32.48C345.578 34.48 346.198 36.76 346.198 39.32C346.198 41.88 345.558 44.2 344.278 46.28C342.998 48.36 341.238 50.02 338.998 51.26C336.798 52.46 334.358 53.06 331.678 53.06H319.618V68H310.918ZM337.738 68L325.618 49.04L334.978 47.54L348.298 68.06L337.738 68ZM319.618 45.74H331.018C332.218 45.74 333.278 45.48 334.198 44.96C335.118 44.44 335.838 43.72 336.358 42.8C336.878 41.88 337.138 40.84 337.138 39.68C337.138 38.52 336.838 37.5 336.238 36.62C335.678 35.74 334.878 35.06 333.838 34.58C332.838 34.06 331.658 33.8 330.298 33.8H319.618V45.74ZM379.095 68.36C375.295 68.36 371.935 67.58 369.015 66.02C366.135 64.46 363.875 62.32 362.235 59.6C360.595 56.84 359.775 53.74 359.775 50.3V25.94H368.835V49.88C368.835 51.84 369.275 53.6 370.155 55.16C371.075 56.72 372.295 57.96 373.815 58.88C375.375 59.8 377.135 60.26 379.095 60.26C381.095 60.26 382.875 59.8 384.435 58.88C386.035 57.96 387.295 56.72 388.215 55.16C389.135 53.6 389.595 51.84 389.595 49.88V25.94H398.355V50.3C398.355 53.74 397.535 56.84 395.895 59.6C394.255 62.32 391.975 64.46 389.055 66.02C386.175 67.58 382.855 68.36 379.095 68.36ZM427.944 68.6C425.024 68.6 422.384 68.3 420.024 67.7C417.664 67.06 415.524 66.14 413.604 64.94C411.724 63.74 410.024 62.3 408.504 60.62L413.664 53.9C416.064 56.5 418.464 58.32 420.864 59.36C423.304 60.4 425.844 60.92 428.484 60.92C429.804 60.92 431.084 60.76 432.324 60.44C433.564 60.08 434.564 59.56 435.324 58.88C436.084 58.16 436.464 57.28 436.464 56.24C436.464 55.52 436.264 54.9 435.864 54.38C435.504 53.86 434.984 53.42 434.304 53.06C433.624 52.7 432.824 52.38 431.904 52.1C431.024 51.78 430.084 51.52 429.084 51.32C428.124 51.12 427.104 50.96 426.024 50.84C423.584 50.44 421.404 49.88 419.484 49.16C417.564 48.44 415.944 47.56 414.624 46.52C413.344 45.44 412.364 44.2 411.684 42.8C411.004 41.36 410.664 39.72 410.664 37.88C410.664 36 411.104 34.28 411.984 32.72C412.904 31.12 414.144 29.76 415.704 28.64C417.304 27.52 419.144 26.66 421.224 26.06C423.344 25.46 425.584 25.16 427.944 25.16C430.664 25.16 433.064 25.44 435.144 26C437.264 26.56 439.124 27.36 440.724 28.4C442.324 29.44 443.644 30.68 444.684 32.12L439.404 38C438.444 36.88 437.344 35.94 436.104 35.18C434.864 34.42 433.544 33.86 432.144 33.5C430.784 33.1 429.364 32.9 427.884 32.9C426.364 32.9 425.004 33.08 423.804 33.44C422.644 33.76 421.704 34.26 420.984 34.94C420.304 35.58 419.964 36.38 419.964 37.34C419.964 38.14 420.204 38.84 420.684 39.44C421.204 40 421.884 40.48 422.724 40.88C423.604 41.28 424.624 41.62 425.784 41.9C426.944 42.18 428.144 42.42 429.384 42.62C431.664 42.98 433.804 43.46 435.804 44.06C437.804 44.66 439.544 45.42 441.024 46.34C442.504 47.26 443.644 48.44 444.444 49.88C445.284 51.28 445.704 52.98 445.704 54.98C445.704 57.82 444.944 60.26 443.424 62.3C441.944 64.34 439.864 65.9 437.184 66.98C434.504 68.06 431.424 68.6 427.944 68.6ZM452.237 68L470.357 26H478.817L496.877 68H487.517L477.257 43.94C476.937 43.22 476.597 42.4 476.237 41.48C475.917 40.56 475.577 39.62 475.217 38.66C474.897 37.7 474.577 36.76 474.257 35.84C473.977 34.92 473.717 34.1 473.477 33.38L475.337 33.32C475.097 34.24 474.817 35.16 474.497 36.08C474.217 36.96 473.897 37.86 473.537 38.78C473.217 39.7 472.877 40.6 472.517 41.48C472.157 42.36 471.797 43.24 471.437 44.12L461.177 68H452.237ZM460.517 59.42L463.577 52.16H485.117L487.457 59.42H460.517Z" fill="url(#paint1_linear_4_63)"/>
<path d="M58.7318 41.6503C70.7575 53.0005 80.1277 64.5025 85.6037 73.811C88.3602 78.4966 89.9734 82.3643 90.5707 85.2155C91.0907 87.698 90.6926 88.5517 90.6061 88.7042C90.4504 88.7915 89.5772 89.1968 86.9977 88.7538C84.035 88.245 79.9969 86.7787 75.0854 84.2271C65.3283 79.1581 53.2094 70.378 41.1838 59.0278C29.1582 47.6777 19.788 36.1757 14.3119 26.8672C11.5554 22.1815 9.94229 18.3139 9.345 15.4626C8.82497 12.9802 9.22306 12.1265 9.30956 11.9739C9.46522 11.8867 10.3384 11.4814 12.918 11.9244C15.8807 12.4332 19.9188 13.8994 24.8303 16.451C34.5874 21.5201 46.7062 30.3002 58.7318 41.6503Z" stroke="#1B7E8B" stroke-width="10.475"/>
<g filter="url(#filter0_i_4_63)">
<path fill-rule="evenodd" clip-rule="evenodd" d="M60.8654 88.109C60.8658 93.8253 56.2323 98.4597 50.5159 98.4602L48.8241 98.4603C43.1078 98.4608 38.4734 93.8272 38.4729 88.1109L38.4708 63.7194L63.4401 38.7458L87.8317 38.7437C93.548 38.7432 98.1824 43.3768 98.1828 49.0931L98.183 50.785C98.1835 56.5013 93.5499 61.1357 87.8336 61.1362L60.8631 61.1385L60.8654 88.109ZM60.861 36.7507L60.8589 11.7755C60.8584 6.05922 56.224 1.42561 50.5077 1.4261L48.8158 1.42625C43.0995 1.42673 38.4659 6.06112 38.4664 11.7774L38.4687 38.7479L11.4982 38.7502C5.78187 38.7507 1.14826 43.3851 1.14875 49.1014L1.1489 50.7933C1.14938 56.5096 5.78377 61.1432 11.5001 61.1427L36.4753 61.1406L60.861 36.7507Z" fill="url(#paint2_linear_4_63)"/>
</g>
<g filter="url(#filter1_i_4_63)">
<path fill-rule="evenodd" clip-rule="evenodd" d="M60.8654 88.109C60.8658 93.8253 56.2323 98.4597 50.5159 98.4602L48.8241 98.4603C43.1078 98.4608 38.4734 93.8272 38.4729 88.1109L38.4708 63.7194L63.4401 38.7458L87.8317 38.7437C93.548 38.7432 98.1824 43.3768 98.1828 49.0931L98.183 50.785C98.1835 56.5013 93.5499 61.1357 87.8336 61.1362L60.8631 61.1385L60.8654 88.109ZM60.861 36.7507L60.8589 11.7755C60.8584 6.05922 56.224 1.42561 50.5077 1.4261L48.8158 1.42625C43.0995 1.42673 38.4659 6.06112 38.4664 11.7774L38.4687 38.7479L11.4982 38.7502C5.78187 38.7507 1.14826 43.3851 1.14875 49.1014L1.1489 50.7933C1.14938 56.5096 5.78377 61.1432 11.5001 61.1427L36.4753 61.1406L60.861 36.7507Z" fill="url(#paint3_linear_4_63)"/>
</g>
<g filter="url(#filter2_d_4_63)">
<path d="M16.7049 30.493C22.1835 39.0172 29.9211 48.5528 40.1375 58.1953C47.8794 65.5024 56.8207 72.7844 65.7308 78.5808" stroke="url(#paint4_linear_4_63)" stroke-width="10.475"/>
</g>
<path d="M88.5844 79.8C89.5297 82.8158 95.4669 92.511 84.6563 88.311C70.4674 83.3683 53.5125 70.8191 40.1375 58.1953C25.8585 44.7183 16.4215 31.4503 11.2268 20.8606C3.64244 5.3993 16.8395 12.882 20.4969 14.3313" stroke="url(#paint5_linear_4_63)" stroke-width="10.475" stroke-linecap="round"/>
</g>
<defs>
<filter id="filter0_i_4_63" x="-1.00623" y="-0.728884" width="99.1892" height="99.1892" filterUnits="userSpaceOnUse" color-interpolation-filters="sRGB">
<feFlood flood-opacity="0" result="BackgroundImageFix"/>
<feBlend mode="normal" in="SourceGraphic" in2="BackgroundImageFix" result="shape"/>
<feColorMatrix in="SourceAlpha" type="matrix" values="0 0 0 0 0 0 0 0 0 0 0 0 0 0 0 0 0 0 127 0" result="hardAlpha"/>
<feOffset dx="-2.15499" dy="-2.15499"/>
<feGaussianBlur stdDeviation="1.61624"/>
<feComposite in2="hardAlpha" operator="arithmetic" k2="-1" k3="1"/>
<feColorMatrix type="matrix" values="0 0 0 0 0.431667 0 0 0 0 0.775383 0 0 0 0 0.925 0 0 0 0.6 0"/>
<feBlend mode="normal" in2="shape" result="effect1_innerShadow_4_63"/>
</filter>
<filter id="filter1_i_4_63" x="1.14876" y="1.4261" width="97.0342" height="99.1892" filterUnits="userSpaceOnUse" color-interpolation-filters="sRGB">
<feFlood flood-opacity="0" result="BackgroundImageFix"/>
<feBlend mode="normal" in="SourceGraphic" in2="BackgroundImageFix" result="shape"/>
<feColorMatrix in="SourceAlpha" type="matrix" values="0 0 0 0 0 0 0 0 0 0 0 0 0 0 0 0 0 0 127 0" result="hardAlpha"/>
<feOffset dy="2.15499"/>
<feGaussianBlur stdDeviation="1.61624"/>
<feComposite in2="hardAlpha" operator="arithmetic" k2="-1" k3="1"/>
<feColorMatrix type="matrix" values="0 0 0 0 0.392157 0 0 0 0 0.690196 0 0 0 0 0.976471 0 0 0 0.7 0"/>
<feBlend mode="normal" in2="shape" result="effect1_innerShadow_4_63"/>
</filter>
<filter id="filter2_d_4_63" x="8.94867" y="27.7732" width="62.9899" height="62.6222" filterUnits="userSpaceOnUse" color-interpolation-filters="sRGB">
<feFlood flood-opacity="0" result="BackgroundImageFix"/>
<feColorMatrix in="SourceAlpha" type="matrix" values="0 0 0 0 0 0 0 0 0 0 0 0 0 0 0 0 0 0 127 0" result="hardAlpha"/>
<feOffset dy="4.30997"/>
<feGaussianBlur stdDeviation="1.61624"/>
<feComposite in2="hardAlpha" operator="out"/>
<feColorMatrix type="matrix" values="0 0 0 0 0.109462 0 0 0 0 0.154646 0 0 0 0 0.270833 0 0 0 0.2 0"/>
<feBlend mode="normal" in2="BackgroundImageFix" result="effect1_dropShadow_4_63"/>
<feBlend mode="normal" in="SourceGraphic" in2="effect1_dropShadow_4_63" result="shape"/>
</filter>
<linearGradient id="paint0_linear_4_63" x1="125" y1="45.5" x2="362.5" y2="203.5" gradientUnits="userSpaceOnUse">
<stop stop-color="#1FBBBC"/>
<stop offset="1" stop-color="#007C7D"/>
</linearGradient>
<linearGradient id="paint1_linear_4_63" x1="125" y1="45.5" x2="406" y2="248.5" gradientUnits="userSpaceOnUse">
<stop stop-color="#185C9E" stop-opacity="0"/>
<stop offset="1" stop-color="#185C9E"/>
</linearGradient>
<linearGradient id="paint2_linear_4_63" x1="98.187" y1="98.4561" x2="49.6617" y2="1.42617" gradientUnits="userSpaceOnUse">
<stop offset="0.355" stop-color="#0D4682"/>
<stop offset="1" stop-color="#54ABD0"/>
</linearGradient>
<linearGradient id="paint3_linear_4_63" x1="98.187" y1="98.4561" x2="49.6617" y2="1.42617" gradientUnits="userSpaceOnUse">
<stop offset="0.355" stop-color="#185C9E"/>
<stop offset="1" stop-color="#3A80C4"/>
</linearGradient>
<linearGradient id="paint4_linear_4_63" x1="41.3266" y1="58.9105" x2="53.6277" y2="45.8774" gradientUnits="userSpaceOnUse">
<stop stop-color="#1FBBBC"/>
<stop offset="0.81" stop-color="#1B7E8B"/>
</linearGradient>
<linearGradient id="paint5_linear_4_63" x1="41.3266" y1="58.9105" x2="53.6277" y2="45.8773" gradientUnits="userSpaceOnUse">
<stop stop-color="#1FBBBC"/>
<stop offset="0.75" stop-color="#1B7E8B"/>
</linearGradient>
<clipPath id="clip0_4_63">
<rect width="500" height="100" fill="white"/>
</clipPath>
</defs>
</svg>
